<?xml version="1.0" encoding="UTF-8" standalone="no"?>
<svg
   xmlns:dc="http://purl.org/dc/elements/1.1/"
   xmlns:cc="http://creativecommons.org/ns#"
   xmlns:rdf="http://www.w3.org/1999/02/22-rdf-syntax-ns#"
   xmlns:svg="http://www.w3.org/2000/svg"
   xmlns="http://www.w3.org/2000/svg"
   version="1.1"
   id="svg4587"
   viewBox="0 0 1920 1250"
   height="1250"
   width="1920">
  <defs
     id="defs4589">
    <clipPath
       id="clipPath3652"
       clipPathUnits="userSpaceOnUse">
      <rect
         y="-168.14709"
         x="0.5"
         height="1417.6471"
         width="2591.1765"
         id="rect3654"
         style="fill:#aa0000;fill-opacity:1;stroke:#806838;stroke-opacity:1" />
    </clipPath>
    <clipPath
       id="clipPath3658"
       clipPathUnits="userSpaceOnUse">
      <rect
         y="-200.192"
         x="0.72921878"
         height="1110.9862"
         width="1947.443"
         id="rect3660"
         style="fill:#aa0000;fill-opacity:1;stroke:#806838;stroke-width:0.72921878;stroke-opacity:1" />
    </clipPath>
    <clipPath
       id="clipPath3664"
       clipPathUnits="userSpaceOnUse">
      <rect
         y="-136.21376"
         x="1.0938281"
         height="1046.6433"
         width="1790.8755"
         id="rect3666"
         style="fill:#aa0000;fill-opacity:1;stroke:#806838;stroke-width:0.72921878;stroke-opacity:1" />
    </clipPath>
  </defs>
  <metadata
     id="metadata4592">
    <rdf:RDF>
      <cc:Work
         rdf:about="">
        <dc:format>image/svg+xml</dc:format>
        <dc:type
           rdf:resource="http://purl.org/dc/dcmitype/StillImage" />
        <dc:title></dc:title>
      </cc:Work>
    </rdf:RDF>
  </metadata>
  <g
     transform="translate(0,197.63784)"
     id="layer1">
    <polygon
       clip-path="url(#clipPath3664)"
       style="clip-rule:evenodd;fill:#892734;fill-rule:evenodd;fill-opacity:1"
       id="polygon59"
       points="1093.4,545.9 1088.2,545.9 1084.8,549.2 1084.8,555.9 1081,555.9 1078.8,553.7 1062.3,553.7 1062.3,546.5 1058.9,546.5 1054.7,548.9 1054.7,553.8 1047.5,553.8 1046.8,551.3 1043.2,551.3 1043.2,544.4 1039.5,544.4 1039.5,548.4 1009.9,548.4 1009.9,546.4 1005.2,546.4 1002.2,548.1 1002.2,552.3 987.7,552.3 987.7,548.3 979.9,540.5 964.7,540.5 954.3,546.5 954.3,552.5 943,552.5 943,545.8 936.5,547.6 936.5,552.5 888.8,552.5 888.8,545.9 882.9,547.5 882.9,552.3 870.2,552.3 867.1,555.4 860.6,555.4 860.6,543.5 863.6,543.5 863.6,540.2 860.8,540.2 860.8,516.2 852,516.2 842.7,506.9 826.4,506.9 821,501.4 815.2,522.9 804.4,522.9 795.4,517.7 780.4,517.7 774,524.2 770,524.2 766.8,518.6 753.3,518.6 753.3,524.7 747.4,518.8 742,518.8 742,541.9 733.7,541.9 733.7,536.4 730.9,535.7 730.9,531.1 727.3,530.2 727.3,518.3 714.3,518.3 709.5,513.6 706.8,518.3 704.8,518.3 703.3,523.8 700.6,523.8 700.6,500.8 701.9,500.8 701.9,494.2 683.3,494.2 683.3,500.9 684.8,500.9 684.8,521.4 674.6,521.4 674.6,526.3 672.5,526.3 672.5,523 663.7,523 663.7,525.9 659.6,525.9 659.6,520.4 653.9,520.4 653.9,526.2 642.9,526.2 642.9,515 617.4,515 617.4,525.6 606.9,525.6 606.9,514 598.9,514 598.9,526.2 595.9,530.8 595.9,515.9 585.4,515.9 585.4,533 580.1,542.3 580.1,607.3 572,607.3 565.5,603.6 479,603.6 468.8,621.3 468.8,628.9 464,633.7 464,647.2 469.3,647.2 469.3,655.2 449,655.2 444.8,651 437.3,658.5 430.5,658.5 426.3,662.7 421.1,659.7 411.4,659.7 411.4,647 408.8,647 407.6,636.2 404.7,636.2 398.9,642 394,637 390.9,642.3 386.8,642.3 386.8,627 383.6,627 383.6,620.6 382.4,620.6 381.7,623.2 379.6,623.2 379,621 376.9,621 376.9,623.1 374.4,623.1 366.8,606 361.2,622.9 353.5,622.9 353.5,619.7 352,618.2 345.7,618.2 345.7,615.7 341.7,615.7 341.7,619.8 340.1,621.4 331.2,621.4 328.7,619.9 328.7,614.7 324.5,614.7 324.5,618.6 319.3,614.9 314.6,617.8 307.4,610.6 307.4,607.4 309.8,607.4 309.8,598.5 306.8,598.5 305.5,594.2 307.6,594.2 307.6,592 305.2,592 296.8,581.1 289.3,592.2 287.3,592.2 287.3,594.3 290.1,594.3 287.3,599.3 283.4,599.3 283.4,606.6 286.6,606.6 286.5,611.1 280,611.1 274.6,615.5 270.6,603.3 268.1,610.2 262.8,601.1 262.8,581.5 255.5,575.3 248.4,582.1 248.4,601.6 246.8,606 233.1,619.6 233.1,617.5 225.5,617.5 225.5,614.1 222.4,611 214.8,611 210.9,615.2 207.3,601.9 207.3,622.2 190.5,622.2 190.5,611.3 187.2,609.4 187.2,605.9 167.4,605.9 164.2,607.8 161.3,604.4 155.7,604.4 150.6,607.9 144.7,604.5 137.7,611.6 126.8,611.6 126.8,569.2 124.7,568.6 124.7,538 123.2,535.1 120.4,506.6 115.4,536.7 115.4,521.5 113.7,520.7 112.2,503.8 110.5,510.2 108.1,510.2 96.7,377.7 83.7,510.9 80.4,510.9 78.7,504.5 77.8,520.8 75.5,521.4 75.5,536.6 71,506.4 68.2,537 66.4,540.2 66.5,568.9 62.8,569.9 62.8,620.2 59,601 56.7,622.2 54,626.9 46,626.9 41.6,632.5 24.3,633 22.6,630.5 17.4,630.5 15.6,634.4 7.3,634.8 6,643 4.1,643.1 0,634.4 0,980 1400,980 1400,664.6 1393.5,662.9 1387.6,640.9 1350.1,640.9 1350.1,605.9 1354.7,605.9 1354.7,598.9 1337.6,581.8 1337.6,569.4 1330.5,569.4 1330.5,581.2 1165,581.2 1156.8,581.7 1144.9,595.7 1144.9,582 1120.8,582 1120.8,562.6 1116.8,562.6 1115.1,565.6 1115.1,576.4 1093.4,576.4 "
       class="st4"
       transform="matrix(1.3713306,0,0,1.3713306,-1.4999999,-196.13774)" />
  </g>
</svg>
