<?xml version="1.0" encoding="UTF-8" standalone="no"?>
<svg
   xmlns:dc="http://purl.org/dc/elements/1.1/"
   xmlns:cc="http://creativecommons.org/ns#"
   xmlns:rdf="http://www.w3.org/1999/02/22-rdf-syntax-ns#"
   xmlns:svg="http://www.w3.org/2000/svg"
   xmlns="http://www.w3.org/2000/svg"
   version="1.1"
   id="svg4587"
   viewBox="0 0 1920 1250"
   height="1250"
   width="1920">
  <defs
     id="defs4589">
    <clipPath
       id="clipPath3652"
       clipPathUnits="userSpaceOnUse">
      <rect
         y="-168.14709"
         x="0.5"
         height="1417.6471"
         width="2591.1765"
         id="rect3654"
         style="fill:#aa0000;fill-opacity:1;stroke:#806838;stroke-opacity:1" />
    </clipPath>
    <clipPath
       id="clipPath3658"
       clipPathUnits="userSpaceOnUse">
      <rect
         y="-200.192"
         x="0.72921878"
         height="1110.9862"
         width="1947.443"
         id="rect3660"
         style="fill:#aa0000;fill-opacity:1;stroke:#806838;stroke-width:0.72921878;stroke-opacity:1" />
    </clipPath>
    <clipPath
       id="clipPath3664"
       clipPathUnits="userSpaceOnUse">
      <rect
         y="-136.21376"
         x="1.0938281"
         height="1046.6433"
         width="1790.8755"
         id="rect3666"
         style="fill:#aa0000;fill-opacity:1;stroke:#806838;stroke-width:0.72921878;stroke-opacity:1" />
    </clipPath>
    <clipPath
       id="clipPath3670"
       clipPathUnits="userSpaceOnUse">
      <rect
         y="-142.67654"
         x="1.5"
         height="1391.1765"
         width="2279.4119"
         id="rect3672"
         style="fill:#aa0000;fill-opacity:1;stroke:#806838;stroke-opacity:1" />
    </clipPath>
  </defs>
  <metadata
     id="metadata4592">
    <rdf:RDF>
      <cc:Work
         rdf:about="">
        <dc:format>image/svg+xml</dc:format>
        <dc:type
           rdf:resource="http://purl.org/dc/dcmitype/StillImage" />
        <dc:title></dc:title>
      </cc:Work>
    </rdf:RDF>
  </metadata>
  <g
     transform="translate(0,197.63784)"
     id="layer1">
    <path
       style="clip-rule:evenodd;fill:#8c2538;fill-rule:evenodd;fill-opacity:1"
       id="path357"
       d="m 288.06599,341.81093 c -3.154,9.188 -27.9751,5.8968 -37.0259,5.8968 -15.3589,0 -84.3368,-6.5824 -78.7144,14.3989 1.9199,7.131 37.5745,2.8798 44.4311,6.4453 l 15.359,7.9537 c 8.3651,4.3883 18.1015,2.6055 27.1523,1.9199 1.6456,-0.1372 8.228,-1.2342 1.6456,-3.5655 -4.5254,-1.6456 -9.4622,-5.4853 -16.0446,-8.6394 l 29.0722,0.1372 c 17.8273,0.1371 22.627,-4.5254 22.627,-20.9814 0.1371,-9.0508 -5.4853,-12.0677 -8.5023,-3.5655 z"
       class="st4" />
  </g>
</svg>
