<?xml version="1.0" encoding="UTF-8" standalone="no"?>
<svg
   xmlns:dc="http://purl.org/dc/elements/1.1/"
   xmlns:cc="http://creativecommons.org/ns#"
   xmlns:rdf="http://www.w3.org/1999/02/22-rdf-syntax-ns#"
   xmlns:svg="http://www.w3.org/2000/svg"
   xmlns="http://www.w3.org/2000/svg"
   version="1.1"
   id="svg5505"
   viewBox="0 0 1980 413.00001"
   height="413"
   width="1980">
  <defs
     id="defs5507" />
  <metadata
     id="metadata5510">
    <rdf:RDF>
      <cc:Work
         rdf:about="">
        <dc:format>image/svg+xml</dc:format>
        <dc:type
           rdf:resource="http://purl.org/dc/dcmitype/StillImage" />
        <dc:title></dc:title>
      </cc:Work>
    </rdf:RDF>
  </metadata>
  <g
     transform="translate(795.71428,-317.29077)"
     id="layer1">
    <g
       transform="matrix(1.4141847,0,0,1.4151508,-795.71428,312.47926)"
       id="g4740">
      <path
         class="st3"
         d="m 361,196.2 c 0.4,-5.2 -93.7,-7.2 -101.5,-7 -29.2,0.8 -43.1,-10.5 -65.5,-15.4 -10,-2.2 -46.2,-0.7 -48.9,-3.8 -19.1,-22.4 -39.8,12 -60,-4 -10.5,-8.3 -31.6,0.2 -30.4,-4.9 3.2,-14.3 -14.4,-7.7 -15.6,-7.8 C 34.2,152.9 23.3,160.5 22,154 18,134.4 9.8,125.8 0,124.5 l 0,109.9 c 13.2,-0.3 24.4,-0.5 31.5,0.1 17,1.4 28.3,4.3 45.2,-5.9 11.3,-6.9 43.4,-9 54.4,-3.2 11.3,6 53,4.5 59.2,-3.9 10.3,-14 50.7,-6.8 65.2,-12.1 7.1,-2.6 79.9,-4.4 88.4,-3.7 6.4,0.4 24.1,-8.1 17.1,-9.5 z"
         id="path4742"
         style="clip-rule:evenodd;fill:#ea584b;fill-rule:evenodd" />
      <path
         class="st3"
         d="m 1255.8,20 c -7.1,3.8 -36.9,-4.9 -55.1,11.4 -12.6,11.4 -63.1,-3.9 -93.2,2.2 -17.9,3.7 -47.6,0 -78.1,6.3 -14.9,3.1 -29.1,7.4 -11.6,10.6 13.9,2.6 58.6,3.3 62.7,11.5 14.4,29 66.4,0.6 93,19.5 4.2,3 45.7,-4.3 57.4,-4.3 12.6,0 25.1,21.4 46.9,23.3 39.3,3.4 22.4,8.6 60.9,-7.3 10.7,-4.4 35.2,-3.3 61.4,-1.4 l 0,-88.4 c -14.5,9.6 -23.6,-3.8 -50.9,15.6 -14,10 -56.8,-18.6 -93.4,1 z"
         id="path4744"
         style="clip-rule:evenodd;fill:#ea584b;fill-rule:evenodd" />      
    </g>
  </g>
</svg>
