<?xml version="1.0" encoding="UTF-8" standalone="no"?>
<svg
   xmlns:dc="http://purl.org/dc/elements/1.1/"
   xmlns:cc="http://creativecommons.org/ns#"
   xmlns:rdf="http://www.w3.org/1999/02/22-rdf-syntax-ns#"
   xmlns:svg="http://www.w3.org/2000/svg"
   xmlns="http://www.w3.org/2000/svg"
   version="1.1"
   id="svg4587"
   viewBox="0 0 1920 1250"
   height="1250"
   width="1920">
  <defs
     id="defs4589">
    <clipPath
       id="clipPath3652"
       clipPathUnits="userSpaceOnUse">
      <rect
         y="-168.14709"
         x="0.5"
         height="1417.6471"
         width="2591.1765"
         id="rect3654"
         style="fill:#aa0000;fill-opacity:1;stroke:#806838;stroke-opacity:1" />
    </clipPath>
    <clipPath
       id="clipPath3658"
       clipPathUnits="userSpaceOnUse">
      <rect
         y="-200.192"
         x="0.72921878"
         height="1110.9862"
         width="1947.443"
         id="rect3660"
         style="fill:#aa0000;fill-opacity:1;stroke:#806838;stroke-width:0.72921878;stroke-opacity:1" />
    </clipPath>
  </defs>
  <metadata
     id="metadata4592">
    <rdf:RDF>
      <cc:Work
         rdf:about="">
        <dc:format>image/svg+xml</dc:format>
        <dc:type
           rdf:resource="http://purl.org/dc/dcmitype/StillImage" />
        <dc:title></dc:title>
      </cc:Work>
    </rdf:RDF>
  </metadata>
  <g
     transform="translate(0,197.63784)"
     id="layer1">
    <polygon
       clip-path="url(#clipPath3658)"
       style="clip-rule:evenodd;fill:#52042c;fill-rule:evenodd;fill-opacity:1"
       id="polygon61"
       points="377.7,714.8 372.6,714.8 370.4,718.6 370.4,732.7 342.1,732.7 342.1,693 335.3,693 330.9,697.4 330.9,706 325.9,706 323.1,703.2 301.5,703.2 301.5,693.7 297.1,693.7 291.7,696.9 291.7,703.2 282.3,703.2 281.5,700.1 276.8,700.1 276.8,691.1 271.9,691.1 271.9,696.3 233.3,696.3 233.3,693.6 227.2,693.6 223.3,695.8 223.3,701.3 204.5,701.3 204.5,696.1 194.3,685.9 174.6,685.9 161,693.8 161,701.6 146.3,701.6 146.3,692.9 137.8,695.2 137.8,701.5 75.7,701.5 75.7,693.1 68,695.1 68,701.4 51.5,701.4 47.4,705.4 38.9,705.4 38.9,689.9 42.8,689.9 42.8,685.6 39.2,685.6 39.2,654.4 27.8,654.4 15.6,642.2 6.1,642.2 6,643 4.1,643.1 3.7,642.2 0,642.2 0,980 805.5,980 805.5,884.8 793.7,872.9 778.2,872.9 764.6,859.4 753.9,859.4 742.4,847.9 732.7,845.3 725.1,816.7 676.3,816.7 676.3,771.1 682.3,771.1 682.3,762 660,739.7 660,723.6 650.8,723.6 650.8,739 435.3,739 424.6,739.6 409.1,757.9 409.1,740 377.7,740 "
       class="st5"
       transform="matrix(1.3713306,0,0,1.3713306,-1,-196.6378)" />
  </g>
</svg>
