<?xml version="1.0" encoding="UTF-8" standalone="no"?>
<svg
   xmlns:dc="http://purl.org/dc/elements/1.1/"
   xmlns:cc="http://creativecommons.org/ns#"
   xmlns:rdf="http://www.w3.org/1999/02/22-rdf-syntax-ns#"
   xmlns:svg="http://www.w3.org/2000/svg"
   xmlns="http://www.w3.org/2000/svg"
   width="1920"
   height="1250"
   viewBox="0 0 1920 1250"
   id="svg3716"
   version="1.1">
  <defs
     id="defs3718">
    <clipPath
       clipPathUnits="userSpaceOnUse"
       id="clipPath3652">
      <rect
         style="fill:#aa0000;fill-opacity:1;stroke:#806838;stroke-opacity:1"
         id="rect3654"
         width="2591.1765"
         height="1417.6471"
         x="0.5"
         y="-168.14709" />
    </clipPath>
  </defs>
  <metadata
     id="metadata3721">
    <rdf:RDF>
      <cc:Work
         rdf:about="">
        <dc:format>image/svg+xml</dc:format>
        <dc:type
           rdf:resource="http://purl.org/dc/dcmitype/StillImage" />
        <dc:title></dc:title>
      </cc:Work>
    </rdf:RDF>
  </metadata>
  <g
     id="layer1"
     transform="translate(0,197.63784)">
    <path
       transform="translate(-0.5,-197.13784)"
       class="st6"
       d="m 1915.0632,588.43796 0,-22.90122 -10.4221,-10.42211 -12.342,3.29119 0,12.75337 -29.7579,0 -20.5699,-56.08742 6.7195,-3.01692 -4.114,-5.75959 0,-36.34026 3.5654,-3.56546 c -11.1077,-36.20313 -26.0552,-54.99036 -41.1399,-57.32162 l 0,-19.0615 8.9137,-12.20484 -10.6964,0 -2.7427,-91.19348 -2.7426,91.19348 -10.6964,0 8.9136,12.20484 0,19.4729 c -13.5761,3.70259 -26.6038,21.25562 -36.2031,51.97343 l 4.6625,6.30812 0,32.7748 -9.5993,9.05078 7.9537,3.83973 -23.724,57.73301 -20.0214,1.50847 -3.7026,-12.20484 -17.553,-1.09707 c 0,0 -11.6563,12.89051 -7.4052,21.11849 4.2511,8.09085 4.9368,9.59932 4.9368,9.59932 l -12.342,44.97964 5.2111,8.09085 c 0,0 -7.8166,6.99379 -10.4221,13.85044 -2.6056,6.85665 -1.0971,24.68395 -1.0971,24.68395 l -0.4114,91.05635 -23.8612,0 21.2557,21.25563 2.6055,19.61002 4.2511,1.09707 0,141.24705 -5.4853,0 0,-8.63938 2.3313,0 0,-12.47911 -13.0277,0 0,12.06771 4.114,0 0,7.95372 -32.2263,0 0,-58.00729 -36.4774,0 0,54.03043 -7.5423,0 -22.7641,-39.49432 -21.8041,0 0,-10.28498 4.9368,0 0,-6.99379 -6.171,-1.6456 -19.1986,-26.19241 -22.0785,24.82108 -126.2995,0 0,5.21106 -5.2111,0 0,55.53889 -12.342,0 0,-5.21106 2.7427,0 0,-30.85494 -42.237,0 0,31.26634 2.7427,0 0,8.09085 -11.6563,0 0,-5.75959 -35.5175,0 0,10.14785 -51.9734,0 0,-136.31026 -101.8899,0 0,78.44011 -105.181,0 -11.1078,-9.32505 -44.43112,0 0,5.48532 -6.44526,0 0,5.75959 3.01693,0 0,7.26805 -20.15856,0 0,-6.99378 3.01693,0 0,-6.85665 -8.50225,0 -3.97686,-6.85666 -37.71159,0 -6.17099,-23.17548 -17.96443,0 -16.04457,27.70087 6.17099,7.54232 0,10.42211 -10.42211,0 -6.58239,-6.58238 -52.93336,0 -6.99379,6.99378 -7.81658,0 0,2.60553 3.83972,0.95993 0,12.61624 -5.89672,0 0,3.7026 5.75959,0 0,27.42661 -51.4249,48.95648 -38.12299,0 0,16.456 1.91987,0.5485 0,45.3911 -29.07221,-15.3589 -23.86116,23.9982 4.93679,2.6056 0,7.5423 -10.69637,0 0,-7.1309 -292.91622,0 0,-18.6501 -92.97622,0 0,16.7302 -12.0677,0 0,4.2511 9.32504,0 0,41.5514 -74.73751,0 0,92.5648 -92.564819,0 -23.449754,-13.5762 -53.207627,0 0,137.6816 1919.8628,0 0,-701.84701 0,-13.85044 -10.6963,-39.76859 5.8967,0 z"
       id="path63"
       style="clip-rule:evenodd;fill:#150008;fill-rule:evenodd;fill-opacity:1"
       clip-path="url(#clipPath3652)" />
    <path
       class="st6"
       d="m 1618.4929,621.27226 c -4.5254,-0.54853 -3.9769,0.54853 -3.7026,-5.07392 0,-1.2342 -5.3482,-1.37133 -5.6224,-0.54853 -0.8228,1.91986 2.7426,5.07392 -2.1942,5.21105 -0.4114,0 -0.6856,-0.27426 -1.2342,-0.4114 -2.3312,-0.95993 -8.3651,-3.15406 -9.8735,1.2342 -3.1541,1.09707 6.0338,1.09707 6.7195,1.91986 0.2742,0.27427 1.9198,1.6456 2.057,1.6456 0.2742,0.68567 1.097,0.95993 1.9198,3.42833 0.2743,0.95993 -0.9599,1.64559 -0.9599,3.70259 0.8228,0 1.3713,-2.60553 3.7026,-2.60553 0.1371,0 2.4684,-0.27426 2.7427,-0.54853 2.6055,-3.01693 6.5823,-1.50846 10.1478,-1.09706 1.0971,0.13713 5.2111,3.29119 3.4283,-1.78273 -0.9599,-2.60553 -4.6625,-4.66253 -7.1309,-5.07393 z"
       id="path359"
       style="clip-rule:evenodd;fill:#150008;fill-rule:evenodd;fill-opacity:1" />
    <path
       class="st6"
       d="m 1647.7022,606.73616 c -3.2911,-1.37133 -3.5654,0.4114 -4.6625,1.09706 -4.3882,2.74266 -1.3713,0.4114 -4.5254,-1.50846 -2.1941,-1.37133 -5.6224,-2.33126 -6.3081,-2.74266 -1.2342,-0.8228 -4.3882,5.34819 -3.5654,7.81658 0.2742,0.4114 1.097,0.68567 1.5084,0.68567 4.9368,-0.13714 0.9599,-0.95993 2.8798,-3.42833 0.6857,-0.8228 3.8397,2.87979 4.3883,3.70259 1.5084,2.60553 -0.8228,3.2912 -0.2743,4.25113 0.9599,1.50846 1.0971,-1.50847 2.3313,-1.50847 2.057,0.13714 1.3713,1.78273 1.3713,3.15406 0.2743,0 5.4853,-3.70259 2.4684,-5.07392 4.2511,0.8228 4.2511,0.13713 7.1309,3.56546 1.2342,1.50846 0.9599,3.01693 2.4684,2.19413 1.0971,-0.27427 0.2743,-9.87358 -5.2111,-12.20484 z"
       id="path361"
       style="clip-rule:evenodd;fill:#150008;fill-rule:evenodd;fill-opacity:1" />
  </g>
</svg>
