<?xml version="1.0" encoding="UTF-8" standalone="no"?>
<svg
   xmlns:dc="http://purl.org/dc/elements/1.1/"
   xmlns:cc="http://creativecommons.org/ns#"
   xmlns:rdf="http://www.w3.org/1999/02/22-rdf-syntax-ns#"
   xmlns:svg="http://www.w3.org/2000/svg"
   xmlns="http://www.w3.org/2000/svg"
   version="1.1"
   id="svg4587"
   viewBox="0 0 1920 1250"
   height="1250"
   width="1920">
  <defs
     id="defs4589">
    <clipPath
       id="clipPath3652"
       clipPathUnits="userSpaceOnUse">
      <rect
         y="-168.14709"
         x="0.5"
         height="1417.6471"
         width="2591.1765"
         id="rect3654"
         style="fill:#aa0000;fill-opacity:1;stroke:#806838;stroke-opacity:1" />
    </clipPath>
    <clipPath
       id="clipPath3658"
       clipPathUnits="userSpaceOnUse">
      <rect
         y="-200.192"
         x="0.72921878"
         height="1110.9862"
         width="1947.443"
         id="rect3660"
         style="fill:#aa0000;fill-opacity:1;stroke:#806838;stroke-width:0.72921878;stroke-opacity:1" />
    </clipPath>
    <clipPath
       id="clipPath3664"
       clipPathUnits="userSpaceOnUse">
      <rect
         y="-136.21376"
         x="1.0938281"
         height="1046.6433"
         width="1790.8755"
         id="rect3666"
         style="fill:#aa0000;fill-opacity:1;stroke:#806838;stroke-width:0.72921878;stroke-opacity:1" />
    </clipPath>
    <clipPath
       id="clipPath3670"
       clipPathUnits="userSpaceOnUse">
      <rect
         y="-142.67654"
         x="1.5"
         height="1391.1765"
         width="2279.4119"
         id="rect3672"
         style="fill:#aa0000;fill-opacity:1;stroke:#806838;stroke-opacity:1" />
    </clipPath>
  </defs>
  <metadata
     id="metadata4592">
    <rdf:RDF>
      <cc:Work
         rdf:about="">
        <dc:format>image/svg+xml</dc:format>
        <dc:type
           rdf:resource="http://purl.org/dc/dcmitype/StillImage" />
        <dc:title></dc:title>
      </cc:Work>
    </rdf:RDF>
  </metadata>
  <g
     transform="translate(0,197.63784)"
     id="layer1">
    <path
       class="st3"
       d="m 495.05035,66.754656 c 0.54853,-7.1309 -128.49368,-9.8735 -139.19006,-9.5993 -40.04285,1.0971 -59.10435,-14.3989 -89.82215,-21.1185 -13.71331,-3.0169 -63.35548,-0.9599 -67.05807,-5.211 -26.19241,-30.7178 -54.57896,16.4559 -82.27984,-5.4853 -14.39897,-11.3821 -43.33404,0.2742 -41.68845,-6.7196 4.38826,-19.61 -19.74716,-10.5592 -21.39276,-10.6963 -6.71951,-0.5486 -21.66702,9.8735 -23.44975,0.9599 C 24.68395,-17.993544 13.43904,-29.786944 0,-31.569744 L 0,119.13956 c 18.10156,-0.4114 33.46047,-0.6857 43.19691,0.1371 23.31262,1.9199 38.80866,5.8967 61.98415,-8.0908 15.49603,-9.4622 59.51575,-12.342 74.60038,-4.3883 15.49604,8.228 72.68052,6.171 81.18277,-5.3482 14.12471,-19.198604 69.52646,-9.325 89.41076,-16.5931 9.73645,-3.565504 109.56931,-6.033904 121.22562,-5.073904 8.77652,0.5485 33.04907,-11.1078 23.44976,-13.0277 z"
       id="path67"
       style="clip-rule:evenodd;fill:#ea584b;fill-rule:evenodd;fill-opacity:1" />
    <path
       class="st3"
       d="m 1722.117,-174.87375 c -9.7365,5.21105 -50.6021,-6.71952 -75.5603,15.63317 -17.2788,15.63317 -86.531,-5.34819 -127.8081,3.01692 -24.5468,5.07393 -65.2753,0 -107.1009,8.63939 -20.4328,4.25112 -39.9057,10.14784 -15.9074,14.5361 19.0615,3.56543 80.36,4.52543 85.9824,15.77033 19.7472,39.768596 91.0564,0.8228 127.5338,26.740896 5.7595,4.114 62.6698,-5.8967 78.7143,-5.8967 17.2788,0 34.4204,29.3465 64.3154,31.952 53.8933,4.6625 30.7178,11.7934 83.5141,-10.0107 14.6732,-6.0339 48.2708,-4.5254 84.1997,-1.9199 l 0,-121.225596 c -19.8843,13.16477 -32.3634,-5.21106 -69.8008,21.39276 -19.1986,13.7133 -77.8915,-25.50675 -128.0822,1.37133 z"
       id="path69"
       style="clip-rule:evenodd;fill:#ea584b;fill-rule:evenodd;fill-opacity:1" />
  </g>
</svg>
