<?xml version="1.0" encoding="UTF-8" standalone="no"?>
<svg
   xmlns:dc="http://purl.org/dc/elements/1.1/"
   xmlns:cc="http://creativecommons.org/ns#"
   xmlns:rdf="http://www.w3.org/1999/02/22-rdf-syntax-ns#"
   xmlns:svg="http://www.w3.org/2000/svg"
   xmlns="http://www.w3.org/2000/svg"
   width="1980"
   height="1090"
   viewBox="0 0 1979.9999 1090"
   id="svg5253"
   version="1.1">
  <defs
     id="defs5255" />
  <metadata
     id="metadata5258">
    <rdf:RDF>
      <cc:Work
         rdf:about="">
        <dc:format>image/svg+xml</dc:format>
        <dc:type
           rdf:resource="http://purl.org/dc/dcmitype/StillImage" />
        <dc:title></dc:title>
      </cc:Work>
    </rdf:RDF>
  </metadata>
  <g
     id="layer1"
     transform="translate(584.28565,135.49494)">
    <path
       style="clip-rule:evenodd;fill:#47011d;fill-rule:evenodd"
       id="path4738"
       d="m 1390.7642,175.67108 0,-23.6096 -10.7485,-10.74449 -12.7285,3.393 0,13.14785 -30.69,0 -21.2143,-57.8223 6.93,-3.110248 -4.2429,-5.937738 0,-37.464337 3.6771,-3.675746 c -11.4557,-37.322952 -26.8714,-56.6913039 -42.4285,-59.0946822 l 0,-19.6510958 9.1928,-12.582367 -11.0314,0 -2.8285,-94.014266 -2.8287,94.014266 -11.0313,0 9.1928,12.582367 0,20.0752249 c -14.0015,3.817122 -27.4371,21.9130981 -37.3371,53.5810641 l 4.8085,6.503242 0,33.788583 -9.9,9.330741 8.2029,3.958497 -24.4672,59.518795 -20.6485,1.55513 -3.8186,-12.58236 -18.1029,-1.131 c 0,0 -12.0214,13.28923 -7.6372,21.77173 4.3844,8.34112 5.0915,9.89624 5.0915,9.89624 l -12.7286,46.37094 5.3743,8.34112 c 0,0 -8.0614,7.21011 -10.7486,14.27886 -2.6871,7.06874 -1.1314,25.44746 -1.1314,25.44746 l -0.4243,93.87291 -24.6086,0 21.9215,21.91309 2.6871,20.2166 4.3843,1.131 0,145.61608 -5.6571,0 0,-8.9066 2.4043,0 0,-12.86511 -13.4358,0 0,12.44098 4.2429,0 0,8.19973 -33.2357,0 0,-59.80155 -37.62,0 0,55.70169 -7.7786,0 -23.4772,-40.71595 -22.4871,0 0,-10.60313 5.0915,0 0,-7.2101 -6.3644,-1.6965 -19.79989,-27.0026 -22.77002,25.58885 -130.25571,0 0,5.37225 -5.37428,0 0,57.2568 -12.72861,0 0,-5.37223 2.8286,0 0,-31.80935 -43.56001,0 0,32.23347 2.82861,0 0,8.34111 -12.02146,0 0,-5.93774 -36.63002,0 0,10.46173 -53.60143,0 0,-140.52659 -105.0814,0 0,80.86641 -108.47575,0 -11.45571,-9.61349 -45.82284,0 0,5.65499 -6.64714,0 0,5.93775 3.11143,0 0,7.49286 -20.79,0 0,-7.21012 3.11143,0 0,-7.06873 -8.76858,0 -4.10142,-7.06875 -38.89286,0 -6.36428,-23.89235 -18.52715,0 -16.54715,28.55773 6.3643,7.77561 0,10.74449 -10.74858,0 -6.78856,-6.78599 -54.59143,0 -7.21287,7.21011 -8.06142,0 0,2.68612 3.96,0.98962 0,13.00649 -6.08144,0 0,3.81713 5.94001,0 0,28.27496 -53.03572,50.47078 -39.31714,0 0,16.96506 1.98001,0.56543 0,46.79506 -29.982866,-15.83392 -24.608567,24.74057 5.091424,2.68617 0,7.7756 -11.031428,0 0,-7.35153 -302.091423,0 0,-19.22697 -95.88857,0 0,17.24778 -12.44572,0 0,4.38255 9.61715,0 0,42.83658 -77.07857,0 0,95.42805 -95.46429,0 -24.18428,-13.99608 -54.87429,0 0,141.94029 1980.00001,0 0,-723.55643 0,-14.27885 -11.0315,-40.9987 6.0814,0 z"
       class="st6" />
    <path
       style="clip-rule:evenodd;fill:#47011d;fill-rule:evenodd"
       id="path5034"
       d="m 1085.42,412.75668 c -4.6672,-0.5655 -4.1015,0.5655 -3.8185,-5.23087 0,-1.27236 -5.5158,-1.41374 -5.7986,-0.56549 -0.8486,1.97924 2.8286,5.23086 -2.2629,5.37224 -0.4242,0 -0.7072,-0.28276 -1.2729,-0.42412 -2.4043,-0.98963 -8.6271,-3.25163 -10.1828,1.27236 -3.2529,1.131 6.2228,1.131 6.93,1.97925 0.2829,0.28275 1.98,1.69651 2.1214,1.69651 0.2828,0.70687 1.1314,0.98962 1.9801,3.53436 0.2828,0.98963 -0.9901,1.69651 -0.9901,3.81712 0.8485,0 1.4143,-2.68612 3.8186,-2.68612 0.1414,0 2.5457,-0.28275 2.8286,-0.56549 2.6871,-3.11025 6.7885,-1.55513 10.4657,-1.131 1.1314,0.14137 5.3743,3.39299 3.5357,-1.83787 -0.99,-2.68613 -4.8086,-4.80676 -7.3543,-5.23088 z"
       class="st6" />
    <path
       style="clip-rule:evenodd;fill:#47011d;fill-rule:evenodd"
       id="path5036"
       d="m 1115.5443,397.77095 c -3.3944,-1.41375 -3.6772,0.42412 -4.8086,1.131 -4.5257,2.8275 -1.4143,0.42412 -4.6671,-1.55513 -2.2628,-1.41374 -5.7986,-2.40337 -6.5058,-2.82749 -1.2728,-0.84825 -4.5257,5.51361 -3.6771,8.05837 0.2829,0.42412 1.1315,0.70687 1.5557,0.70687 5.0915,-0.14137 0.9901,-0.98963 2.97,-3.53437 0.7072,-0.84825 3.96,2.96887 4.5257,3.81713 1.5557,2.68612 -0.8485,3.39299 -0.2828,4.38261 0.99,1.55512 1.1314,-1.55513 2.4043,-1.55513 2.1214,0.14138 1.4143,1.83788 1.4143,3.25163 0.2828,0 5.6571,-3.81712 2.5457,-5.23087 4.3843,0.84825 4.3843,0.14137 7.3543,3.67575 1.2728,1.55512 0.99,3.11024 2.5457,2.26199 1.1314,-0.28274 0.2828,-10.17899 -5.3743,-12.58236 z"
       class="st6" />
  </g>
  <rect
     y="1022.1166"
     x="-44.124237"
     height="101.82503"
     width="2056.8655"
     id="rect3341"
     style="fill:#47011d;fill-opacity:1;stroke:#47011d;stroke-opacity:1" />
</svg>
