<?xml version="1.0" encoding="utf-8"?>
<!-- Generator: Adobe Illustrator 21.0.0, SVG Export Plug-In . SVG Version: 6.00 Build 0)  -->
<svg version="1.1" id="Layer_1" xmlns="http://www.w3.org/2000/svg" xmlns:xlink="http://www.w3.org/1999/xlink" x="0px" y="0px"
	 width="1400px" height="980px" viewBox="0 0 1400 980" style="enable-background:new 0 0 1400 980;" xml:space="preserve">
<style type="text/css">
	.st0{fill-rule:evenodd;clip-rule:evenodd;fill:#F5DDAE;}
	.st1{fill-rule:evenodd;clip-rule:evenodd;fill:#FAE4B9;}
	.st2{fill-rule:evenodd;clip-rule:evenodd;fill:#FCECCD;}
	.st3{fill-rule:evenodd;clip-rule:evenodd;fill:#EDD29C;}
	.st4{fill-rule:evenodd;clip-rule:evenodd;fill:#D1AE68;}
	.st5{fill-rule:evenodd;clip-rule:evenodd;fill:#A6884C;}
	.st6{fill-rule:evenodd;clip-rule:evenodd;fill:#806838;}
	.st7{fill-rule:evenodd;clip-rule:evenodd;fill:#FFFFFF;}
</style>
<g>
	<g>
		<g>
			<defs>
				<circle id="SVGID_1_" cx="695.6" cy="437.6" r="36.6"/>
			</defs>
			<clipPath id="SVGID_2_">
				<use xlink:href="#SVGID_1_"  style="overflow:visible;"/>
			</clipPath>
		</g>
		<g>
			<defs>
				<path id="SVGID_3_" d="M632.6,469.7L632.6,469.7c13.9,0,25.2,11.3,25.2,25.2v96.7h-50.4v-96.7
					C607.4,481,618.7,469.7,632.6,469.7z"/>
			</defs>
			<clipPath id="SVGID_4_">
				<use xlink:href="#SVGID_3_"  style="overflow:visible;"/>
			</clipPath>
		</g>
		<g>
			<defs>
				<path id="SVGID_5_" d="M760.7,469.7L760.7,469.7c13.9,0,25.2,11.3,25.2,25.2v96.7h-50.4v-96.7
					C735.5,481,746.8,469.7,760.7,469.7z"/>
			</defs>
			<clipPath id="SVGID_6_">
				<use xlink:href="#SVGID_5_"  style="overflow:visible;"/>
			</clipPath>
		</g>
		<g>
			<defs>
				<path id="SVGID_7_" d="M513.9,558.9L513.9,558.9c8.1,0,14.7,6.6,14.7,14.7v56.3h-29.3v-56.3
					C499.2,565.5,505.8,558.9,513.9,558.9z"/>
			</defs>
			<clipPath id="SVGID_8_">
				<use xlink:href="#SVGID_7_"  style="overflow:visible;"/>
			</clipPath>
		</g>
		<g>
			<defs>
				<path id="SVGID_9_" d="M877.4,558.9L877.4,558.9c8.1,0,14.7,6.6,14.7,14.7v56.3h-29.3v-56.3
					C862.7,565.5,869.3,558.9,877.4,558.9z"/>
			</defs>
			<clipPath id="SVGID_10_">
				<use xlink:href="#SVGID_9_"  style="overflow:visible;"/>
			</clipPath>
		</g>
	</g>
</g>
<g>
	<rect x="0" class="st0" width="1400" height="980"/>
	<path class="st1" d="M0,287.6V980h1400V287.6c-189.2-106.2-433.4-170.2-700-170.2S189.2,181.4,0,287.6z"/>
	<path class="st2" d="M0,479.5V980h1400V479.5c-162.4-138.8-415.6-228.1-700-228.1C415.6,251.3,162.4,340.6,0,479.5z"/>
	<path class="st3" d="M1039.5,456.1c-39.2-20.6-62.9-31.7-103.4-16.1c-115.9,44.6-347.1,219.3-463,134.1
		c-12.2-9-209.9-86.7-234.4-93.9c-32.2-9.4-32.2-8.5-65.2-8.5c-16.2,0-95.1,20-173.5,41.2V980h1400V586.8
		c-20.7-7.9-41-13.6-49.8-16.2C1249.7,541.7,1133.2,505.4,1039.5,456.1z"/>
	<polygon class="st4" points="1387.6,640.9 1350.1,640.9 1350.1,605.9 1354.7,605.9 1354.7,598.9 1337.6,581.8 1337.6,569.4 
		1330.5,569.4 1330.5,581.2 1165,581.2 1156.8,581.7 1144.9,595.7 1144.9,582 1120.8,582 1120.8,562.6 1116.8,562.6 1115.1,565.6 
		1115.1,576.4 1093.4,576.4 1093.4,545.9 1088.2,545.9 1084.8,549.2 1084.8,555.9 1081,555.9 1078.8,553.7 1062.3,553.7 
		1062.3,546.5 1058.9,546.5 1054.7,548.9 1054.7,553.8 1047.5,553.8 1046.8,551.3 1043.2,551.3 1043.2,544.4 1039.5,544.4 
		1039.5,548.4 1009.9,548.4 1009.9,546.4 1005.2,546.4 1002.2,548.1 1002.2,552.3 987.7,552.3 987.7,548.3 979.9,540.5 964.7,540.5 
		954.3,546.5 954.3,552.5 943,552.5 943,545.8 936.5,547.6 936.5,552.5 888.8,552.5 888.8,545.9 882.9,547.5 882.9,552.3 
		870.2,552.3 867.1,555.4 860.6,555.4 860.6,543.5 863.6,543.5 863.6,540.2 860.8,540.2 860.8,516.2 852,516.2 842.7,506.9 
		826.4,506.9 821,501.4 815.2,522.9 804.4,522.9 795.4,517.7 780.4,517.7 774,524.2 770,524.2 766.8,518.6 753.3,518.6 753.3,524.7 
		747.4,518.8 742,518.8 742,541.9 733.7,541.9 733.7,536.4 730.9,535.7 730.9,531.1 727.3,530.2 727.3,518.3 714.3,518.3 
		709.5,513.6 706.8,518.3 704.8,518.3 703.3,523.8 700.6,523.8 700.6,500.8 701.9,500.8 701.9,494.2 683.3,494.2 683.3,500.9 
		684.8,500.9 684.8,521.4 674.6,521.4 674.6,526.3 672.5,526.3 672.5,523 663.7,523 663.7,525.9 659.6,525.9 659.6,520.4 
		653.9,520.4 653.9,526.2 642.9,526.2 642.9,515 617.4,515 617.4,525.6 606.9,525.6 606.9,514 598.9,514 598.9,526.2 595.9,530.8 
		595.9,515.9 585.4,515.9 585.4,533 580.1,542.3 580.1,607.3 572,607.3 565.5,603.6 479,603.6 468.8,621.3 468.8,628.9 464,633.7 
		464,647.2 469.3,647.2 469.3,655.2 449,655.2 444.8,651 437.3,658.5 430.5,658.5 426.3,662.7 421.1,659.7 411.4,659.7 411.4,647 
		408.8,647 407.6,636.2 404.7,636.2 398.9,642 394,637 390.9,642.3 386.8,642.3 386.8,627 383.6,627 383.6,620.6 382.4,620.6 
		381.7,623.2 379.6,623.2 379,621 376.9,621 376.9,623.1 374.4,623.1 366.8,606 361.2,622.9 353.5,622.9 353.5,619.7 352,618.2 
		345.7,618.2 345.7,615.7 341.7,615.7 341.7,619.8 340.1,621.4 331.2,621.4 328.7,619.9 328.7,614.7 324.5,614.7 324.5,618.6 
		319.3,614.9 314.6,617.8 307.4,610.6 307.4,607.4 309.8,607.4 309.8,598.5 306.8,598.5 305.5,594.2 307.6,594.2 307.6,592 
		305.2,592 296.8,581.1 289.3,592.2 287.3,592.2 287.3,594.3 290.1,594.3 287.3,599.3 283.4,599.3 283.4,606.6 286.6,606.6 
		286.5,611.1 280,611.1 274.6,615.5 270.6,603.3 268.1,610.2 262.8,601.1 262.8,581.5 255.5,575.3 248.4,582.1 248.4,601.6 
		246.8,606 233.1,619.6 233.1,617.5 225.5,617.5 225.5,614.1 222.4,611 214.8,611 210.9,615.2 207.3,601.9 207.3,622.2 190.5,622.2 
		190.5,611.3 187.2,609.4 187.2,605.9 167.4,605.9 164.2,607.8 161.3,604.4 155.7,604.4 150.6,607.9 144.7,604.5 137.7,611.6 
		126.8,611.6 126.8,569.2 124.7,568.6 124.7,538 123.2,535.1 120.4,506.6 115.4,536.7 115.4,521.5 113.7,520.7 112.2,503.8 
		110.5,510.2 108.1,510.2 96.7,377.7 83.7,510.9 80.4,510.9 78.7,504.5 77.8,520.8 75.5,521.4 75.5,536.6 71,506.4 68.2,537 
		66.4,540.2 66.5,568.9 62.8,569.9 62.8,620.2 59,601 56.7,622.2 54,626.9 46,626.9 41.6,632.5 24.3,633 22.6,630.5 17.4,630.5 
		15.6,634.4 7.3,634.8 6,643 4.1,643.1 0,634.4 0,980 1400,980 1400,664.6 1393.5,662.9 	"/>
	<polygon class="st5" points="778.2,872.9 764.6,859.4 753.9,859.4 742.4,847.9 732.7,845.3 725.1,816.7 676.3,816.7 676.3,771.1 
		682.3,771.1 682.3,762 660,739.7 660,723.6 650.8,723.6 650.8,739 435.3,739 424.6,739.6 409.1,757.9 409.1,740 377.7,740 
		377.7,714.8 372.6,714.8 370.4,718.6 370.4,732.7 342.1,732.7 342.1,693 335.3,693 330.9,697.4 330.9,706 325.9,706 323.1,703.2 
		301.5,703.2 301.5,693.7 297.1,693.7 291.7,696.9 291.7,703.2 282.3,703.2 281.5,700.1 276.8,700.1 276.8,691.1 271.9,691.1 
		271.9,696.3 233.3,696.3 233.3,693.6 227.2,693.6 223.3,695.8 223.3,701.3 204.5,701.3 204.5,696.1 194.3,685.9 174.6,685.9 
		161,693.8 161,701.6 146.3,701.6 146.3,692.9 137.8,695.2 137.8,701.5 75.7,701.5 75.7,693.1 68,695.1 68,701.4 51.5,701.4 
		47.4,705.4 38.9,705.4 38.9,689.9 42.8,689.9 42.8,685.6 39.2,685.6 39.2,654.4 27.8,654.4 15.6,642.2 6.1,642.2 6,643 4.1,643.1 
		3.7,642.2 0,642.2 0,980 805.5,980 805.5,884.8 793.7,872.9 	"/>
	<path class="st6" d="M1396.5,429.1v-16.7l-7.6-7.6l-9,2.4v9.3h-21.7l-15-40.9l4.9-2.2l-3-4.2v-26.5l2.6-2.6
		c-8.1-26.4-19-40.1-30-41.8v-13.9l6.5-8.9h-7.8l-2-66.5l-2,66.5h-7.8l6.5,8.9v14.2c-9.9,2.7-19.4,15.5-26.4,37.9l3.4,4.6v23.9
		l-7,6.6l5.8,2.8l-17.3,42.1l-14.6,1.1l-2.7-8.9l-12.8-0.8c0,0-8.5,9.4-5.4,15.4c3.1,5.9,3.6,7,3.6,7l-9,32.8l3.8,5.9
		c0,0-5.7,5.1-7.6,10.1c-1.9,5-0.8,18-0.8,18l-0.3,66.4h-17.4l15.5,15.5l1.9,14.3l3.1,0.8v103h-4v-6.3h1.7v-9.1h-9.5v8.8h3v5.8
		h-23.5v-42.3H1168v39.4h-5.5l-16.6-28.8h-15.9v-7.5h3.6V652l-4.5-1.2l-14-19.1l-16.1,18.1h-92.1v3.8h-3.8v40.5h-9v-3.8h2v-22.5
		h-30.8v22.8h2v5.9h-8.5v-4.2h-25.9v7.4H895v-99.4h-74.3v57.2h-76.7l-8.1-6.8h-32.4v4h-4.7v4.2h2.2v5.3h-14.7v-5.1h2.2v-5h-6.2
		l-2.9-5h-27.5l-4.5-16.9h-13.1l-11.7,20.2l4.5,5.5v7.6h-7.6l-4.8-4.8h-38.6l-5.1,5.1h-5.7v1.9l2.8,0.7v9.2h-4.3v2.7h4.2v20
		L530.5,736h-27.8v12l1.4,0.4v33.1l-21.2-11.2l-17.4,17.5l3.6,1.9v5.5h-7.8V790H247.7v-13.6h-67.8v12.2h-8.8v3.1h6.8V822h-54.5v67.5
		H55.9l-17.1-9.9H0V980h1400V468.2v-10.1l-7.8-29H1396.5z"/>
	<g>
		<path class="st3" d="M361,196.2c0.4-5.2-93.7-7.2-101.5-7c-29.2,0.8-43.1-10.5-65.5-15.4c-10-2.2-46.2-0.7-48.9-3.8
			c-19.1-22.4-39.8,12-60-4c-10.5-8.3-31.6,0.2-30.4-4.9c3.2-14.3-14.4-7.7-15.6-7.8c-4.9-0.4-15.8,7.2-17.1,0.7
			c-4-19.6-12.2-28.2-22-29.5v109.9c13.2-0.3,24.4-0.5,31.5,0.1c17,1.4,28.3,4.3,45.2-5.9c11.3-6.9,43.4-9,54.4-3.2
			c11.3,6,53,4.5,59.2-3.9c10.3-14,50.7-6.8,65.2-12.1c7.1-2.6,79.9-4.4,88.4-3.7C350.3,206.1,368,197.6,361,196.2z"/>
		<path class="st3" d="M1255.8,20c-7.1,3.8-36.9-4.9-55.1,11.4c-12.6,11.4-63.1-3.9-93.2,2.2c-17.9,3.7-47.6,0-78.1,6.3
			c-14.9,3.1-29.1,7.4-11.6,10.6c13.9,2.6,58.6,3.3,62.7,11.5c14.4,29,66.4,0.6,93,19.5c4.2,3,45.7-4.3,57.4-4.3
			c12.6,0,25.1,21.4,46.9,23.3c39.3,3.4,22.4,8.6,60.9-7.3c10.7-4.4,35.2-3.3,61.4-1.4V3.4c-14.5,9.6-23.6-3.8-50.9,15.6
			C1335.2,29,1292.4,0.4,1255.8,20z"/>
		<path class="st3" d="M907.8,267.8c0.3-3.6-64.8-5-70.2-4.9c-20.2,0.6-29.8-7.3-45.3-10.7c-6.9-1.5-32-0.5-33.8-2.7
			c-13.2-15.5-27.5,8.3-41.5-2.7c-7.3-5.7-21.8,0.2-21-3.4c2.2-9.9-9.9-5.3-10.8-5.4c-3.4-0.3-10.9,5-11.8,0.5
			c-7-34.4-32.9-19.7-47.6,1.7c-6.3,0-13.8,0.4-20,1.1c-10.5,1.3-28.9,18.5-29.2,25.2c-2,36.6,80.6,25.8,103.4,27.7
			c11.8,1,19.6,3,31.3-4.1c7.8-4.7,30-6.2,37.6-2.2c7.8,4.2,36.7,3.1,40.9-2.7c7.1-9.7,35.1-4.7,45.1-8.4c4.9-1.8,55.3-3.1,61.1-2.6
			C900.4,274.7,912.6,268.8,907.8,267.8z"/>
	</g>
	<g>
		<rect x="846.3" y="788.1" class="st7" width="1.6" height="10.4"/>
		<rect x="886.7" y="788.1" class="st7" width="1.6" height="10.4"/>
		<path class="st7" d="M887.5,786.3c0.3,0,0.5-0.1,0.7-0.3c0.2-0.2,0.3-0.4,0.3-0.8c0-0.4-0.1-0.6-0.3-0.8c-0.2-0.2-0.4-0.3-0.7-0.3
			c-0.3,0-0.5,0.1-0.7,0.3c-0.2,0.2-0.3,0.4-0.3,0.8c0,0.4,0.1,0.6,0.3,0.8C887.1,786.2,887.3,786.3,887.5,786.3z"/>
		<path class="st7" d="M847.1,786.3c0.3,0,0.5-0.1,0.7-0.3c0.2-0.2,0.3-0.4,0.3-0.8c0-0.4-0.1-0.6-0.3-0.8c-0.2-0.2-0.4-0.3-0.7-0.3
			c-0.3,0-0.5,0.1-0.7,0.3s-0.3,0.4-0.3,0.8c0,0.4,0.1,0.6,0.3,0.8S846.9,786.3,847.1,786.3z"/>
		<path class="st7" d="M521.6,798.3c0.6,0.3,1.2,0.4,1.9,0.4c1.4,0,2.4-0.5,3.2-1.4c0.8-0.9,1.1-2.3,1.1-4c0-1.7-0.4-3-1.1-4
			c-0.8-0.9-1.8-1.4-3.2-1.4c-0.7,0-1.3,0.1-1.9,0.4c-0.5,0.3-1,0.7-1.4,1.2h-0.1l-0.2-1.4h-1.3v15.1h1.6v-4.3c0-0.5,0-1.1-0.1-1.7
			h0.1C520.6,797.7,521,798.1,521.6,798.3z M520.2,793c0-1.3,0.3-2.2,0.7-2.8c0.5-0.6,1.2-0.9,2.3-0.9c0.9,0,1.6,0.3,2.2,1
			c0.5,0.7,0.8,1.7,0.8,3c0,1.3-0.3,2.3-0.8,3c-0.5,0.7-1.2,1.1-2.1,1.1c-1.1,0-1.9-0.3-2.4-0.9c-0.5-0.6-0.7-1.7-0.7-3.1V793z"/>
		<path class="st7" d="M710.3,822.8L710.3,822.8l-7.7-11.6h-1.8v13.9h1.5v-7.9c0-1.1-0.1-2.4-0.2-3.8h0.1l7.6,11.7h1.8v-13.9h-1.5v8
			c0,0.4,0,1.1,0,2C710.3,822.1,710.3,822.6,710.3,822.8z"/>
		<rect x="863.2" y="788.1" class="st7" width="1.6" height="10.4"/>
		<path class="st7" d="M487.3,796.6c-1.1,0.5-2.2,0.7-3.3,0.7c-1.1,0-1.9-0.3-2.5-1c-0.6-0.6-0.9-1.6-0.9-2.8h7.2v-1
			c0-1.4-0.4-2.5-1.1-3.4c-0.8-0.9-1.8-1.3-3.1-1.3c-1.4,0-2.5,0.5-3.3,1.5c-0.8,1-1.2,2.3-1.2,4c0,1.7,0.4,3,1.3,3.9
			c0.9,0.9,2.1,1.4,3.6,1.4c0.7,0,1.3-0.1,1.8-0.2c0.5-0.1,1-0.3,1.6-0.5V796.6z M481.5,790c0.5-0.5,1.2-0.8,2-0.8
			c0.8,0,1.5,0.3,1.9,0.8c0.4,0.5,0.7,1.3,0.7,2.3h-5.5C480.7,791.3,481,790.6,481.5,790z"/>
		<path class="st7" d="M503.2,789.9c0.4,0.4,0.5,1,0.5,1.9v6.8h1.6v-6.8c0-1.3-0.3-2.3-0.9-2.9c-0.6-0.6-1.5-0.9-2.7-0.9
			c-0.8,0-1.4,0.2-2,0.5c-0.6,0.3-1,0.8-1.4,1.3h-0.1c-0.5-1.2-1.6-1.8-3.2-1.8c-0.7,0-1.3,0.1-1.8,0.4c-0.5,0.3-1,0.7-1.3,1.2H492
			l-0.3-1.4h-1.3v10.4h1.6v-5.5c0-1.4,0.2-2.3,0.7-2.9c0.5-0.6,1.2-0.9,2.2-0.9c0.8,0,1.3,0.2,1.7,0.6c0.4,0.4,0.5,1,0.5,1.9v6.8
			h1.6v-5.8c0-1.2,0.2-2,0.7-2.6c0.5-0.6,1.2-0.9,2.2-0.9C502.3,789.2,502.9,789.5,503.2,789.9z"/>
		<path class="st7" d="M504.7,819.2c-0.9-0.3-1.5-0.6-1.8-0.8c-0.3-0.2-0.5-0.4-0.7-0.6c-0.1-0.2-0.2-0.4-0.2-0.7
			c0-0.4,0.2-0.7,0.6-1c0.4-0.2,0.9-0.3,1.7-0.3c0.8,0,1.8,0.2,2.8,0.6l0.6-1.3c-1.1-0.5-2.2-0.7-3.3-0.7c-1.2,0-2.2,0.2-2.8,0.7
			c-0.7,0.5-1,1.2-1,2c0,0.5,0.1,0.9,0.3,1.2c0.2,0.3,0.5,0.6,0.9,0.9c0.4,0.3,1.1,0.6,2.1,1c1,0.4,1.7,0.7,2.1,1
			c0.4,0.3,0.5,0.6,0.5,1c0,0.5-0.2,0.9-0.7,1.2c-0.4,0.3-1.1,0.4-1.9,0.4c-0.5,0-1.1-0.1-1.7-0.2c-0.6-0.1-1.1-0.3-1.6-0.6v1.5
			c0.8,0.4,1.9,0.7,3.2,0.7c1.3,0,2.3-0.3,3-0.8c0.7-0.5,1.1-1.3,1.1-2.3c0-0.7-0.2-1.3-0.7-1.7
			C506.8,820.1,505.9,819.6,504.7,819.2z"/>
		<path class="st7" d="M864,786.3c0.3,0,0.5-0.1,0.7-0.3c0.2-0.2,0.3-0.4,0.3-0.8c0-0.4-0.1-0.6-0.3-0.8c-0.2-0.2-0.4-0.3-0.7-0.3
			c-0.3,0-0.5,0.1-0.7,0.3c-0.2,0.2-0.3,0.4-0.3,0.8c0,0.4,0.1,0.6,0.3,0.8C863.5,786.2,863.8,786.3,864,786.3z"/>
		<path class="st7" d="M490.3,819.2c-0.9-0.3-1.5-0.6-1.8-0.8c-0.3-0.2-0.5-0.4-0.7-0.6c-0.1-0.2-0.2-0.4-0.2-0.7
			c0-0.4,0.2-0.7,0.6-1c0.4-0.2,0.9-0.3,1.7-0.3c0.8,0,1.8,0.2,2.8,0.6l0.6-1.3c-1.1-0.5-2.2-0.7-3.3-0.7c-1.2,0-2.2,0.2-2.8,0.7
			c-0.7,0.5-1,1.2-1,2c0,0.5,0.1,0.9,0.3,1.2c0.2,0.3,0.5,0.6,0.9,0.9c0.4,0.3,1.1,0.6,2.1,1c1,0.4,1.7,0.7,2.1,1
			c0.4,0.3,0.5,0.6,0.5,1c0,0.5-0.2,0.9-0.7,1.2c-0.4,0.3-1.1,0.4-1.9,0.4c-0.5,0-1.1-0.1-1.7-0.2c-0.6-0.1-1.1-0.3-1.6-0.6v1.5
			c0.8,0.4,1.9,0.7,3.2,0.7c1.3,0,2.3-0.3,3-0.8c0.7-0.5,1.1-1.3,1.1-2.3c0-0.7-0.2-1.3-0.7-1.7
			C492.4,820.1,491.6,819.6,490.3,819.2z"/>
		<path class="st7" d="M564.1,814.5c-0.6,0-1.2,0.1-1.8,0.2c-0.6,0.2-1.2,0.4-1.7,0.7l0.5,1.2c1.1-0.5,2.1-0.8,3-0.8
			c0.8,0,1.3,0.2,1.7,0.6c0.4,0.4,0.5,1,0.5,1.8v0.6l-1.8,0.1c-3.4,0.1-5.1,1.2-5.1,3.3c0,1,0.3,1.7,0.9,2.3
			c0.6,0.5,1.4,0.8,2.4,0.8c0.8,0,1.4-0.1,1.9-0.3c0.5-0.2,1-0.7,1.6-1.3h0.1l0.3,1.5h1.2V818c0-1.2-0.3-2.1-0.9-2.7
			C566.3,814.8,565.4,814.5,564.1,814.5z M566.2,820.9c0,1-0.3,1.7-0.8,2.3c-0.6,0.5-1.3,0.8-2.3,0.8c-0.6,0-1.1-0.1-1.4-0.4
			c-0.3-0.3-0.5-0.7-0.5-1.3c0-0.7,0.3-1.3,0.8-1.6c0.6-0.3,1.5-0.5,2.7-0.6l1.6-0.1V820.9z"/>
		<path class="st7" d="M936.1,786.3c0.3,0,0.5-0.1,0.7-0.3c0.2-0.2,0.3-0.4,0.3-0.8c0-0.4-0.1-0.6-0.3-0.8c-0.2-0.2-0.4-0.3-0.7-0.3
			c-0.3,0-0.5,0.1-0.7,0.3s-0.3,0.4-0.3,0.8c0,0.4,0.1,0.6,0.3,0.8S935.8,786.3,936.1,786.3z"/>
		<path class="st7" d="M583.8,816.4c0.4,0.4,0.5,1,0.5,1.9v6.8h1.6v-6.8c0-1.3-0.3-2.3-0.9-2.9c-0.6-0.6-1.5-0.9-2.7-0.9
			c-0.8,0-1.4,0.2-2,0.5c-0.6,0.3-1,0.7-1.4,1.3H579c-0.5-1.2-1.6-1.8-3.2-1.8c-0.7,0-1.3,0.1-1.8,0.4c-0.5,0.3-1,0.7-1.3,1.2h-0.1
			l-0.3-1.4h-1.3v10.4h1.6v-5.5c0-1.4,0.2-2.3,0.7-2.9c0.5-0.6,1.2-0.9,2.2-0.9c0.8,0,1.3,0.2,1.7,0.6c0.4,0.4,0.5,1,0.5,1.9v6.8
			h1.6v-5.8c0-1.2,0.2-2,0.7-2.6c0.5-0.6,1.2-0.8,2.2-0.8C582.9,815.8,583.5,816,583.8,816.4z"/>
		<rect x="603.2" y="836.8" class="st7" width="1.6" height="14.8"/>
		<path class="st7" d="M586.4,848.1c-0.4,1.1-0.6,1.8-0.7,2.1h-0.1c-0.1-0.4-0.4-1.4-0.9-2.8l-2.2-6.2h-1.7l4,10.4h1.8l4-10.4h-1.7
			C587.6,844.8,586.8,847.1,586.4,848.1z"/>
		<path class="st7" d="M560,798.5v-5.8c0-1.2,0.2-2,0.7-2.6c0.5-0.6,1.2-0.9,2.2-0.9c0.7,0,1.3,0.2,1.7,0.6c0.4,0.4,0.5,1,0.5,1.9
			v6.8h1.6v-6.8c0-1.3-0.3-2.3-0.9-2.9c-0.6-0.6-1.5-0.9-2.7-0.9c-0.8,0-1.4,0.2-2,0.5c-0.6,0.3-1,0.8-1.4,1.3h-0.1
			c-0.5-1.2-1.6-1.8-3.2-1.8c-0.7,0-1.3,0.1-1.8,0.4c-0.5,0.3-1,0.7-1.3,1.2h-0.1l-0.3-1.4h-1.3v10.4h1.6v-5.5
			c0-1.4,0.2-2.3,0.7-2.9c0.5-0.6,1.2-0.9,2.2-0.9c0.8,0,1.3,0.2,1.7,0.6c0.4,0.4,0.5,1,0.5,1.9v6.8H560z"/>
		<path class="st7" d="M596.3,841c-1.4,0-2.5,0.5-3.3,1.5c-0.8,1-1.2,2.3-1.2,4c0,1.7,0.4,3,1.3,3.9c0.9,0.9,2.1,1.4,3.6,1.4
			c0.7,0,1.3,0,1.8-0.2c0.5-0.1,1-0.3,1.6-0.5v-1.4c-1.1,0.5-2.2,0.7-3.3,0.7c-1.1,0-1.9-0.3-2.5-1c-0.6-0.6-0.9-1.6-0.9-2.8h7.2v-1
			c0-1.4-0.4-2.5-1.1-3.4C598.6,841.4,597.6,841,596.3,841z M593.4,845.4c0.1-1,0.4-1.7,0.9-2.3c0.5-0.5,1.2-0.8,2-0.8
			c0.8,0,1.5,0.3,1.9,0.8c0.4,0.5,0.7,1.3,0.7,2.3H593.4z"/>
		<path class="st7" d="M545.4,820.1c0,1.4-0.3,2.3-0.8,2.9c-0.5,0.6-1.3,0.9-2.4,0.9c-0.8,0-1.4-0.2-1.8-0.6
			c-0.4-0.4-0.6-1.1-0.6-1.9v-6.8h-1.6v6.8c0,1.3,0.3,2.3,0.9,2.9c0.6,0.6,1.6,0.9,2.9,0.9c0.7,0,1.4-0.1,2-0.4
			c0.6-0.3,1-0.7,1.3-1.2h0.1l0.2,1.4h1.3v-10.4h-1.6V820.1z"/>
		<path class="st7" d="M923.8,798.7c0.7,0,1.3-0.1,1.8-0.2c0.5-0.1,1-0.3,1.6-0.5v-1.4c-1.1,0.5-2.2,0.7-3.3,0.7
			c-1.1,0-1.9-0.3-2.5-1c-0.6-0.6-0.9-1.6-0.9-2.8h7.2v-1c0-1.4-0.4-2.5-1.1-3.4c-0.8-0.9-1.8-1.3-3.1-1.3c-1.4,0-2.5,0.5-3.3,1.5
			c-0.8,1-1.2,2.3-1.2,4c0,1.7,0.4,3,1.3,3.9C921,798.3,922.3,798.7,923.8,798.7z M921.4,790c0.5-0.5,1.2-0.8,2-0.8
			c0.8,0,1.5,0.3,1.9,0.8c0.4,0.5,0.7,1.3,0.7,2.3h-5.5C920.6,791.3,920.9,790.6,921.4,790z"/>
		<path class="st7" d="M534.1,792.6c-0.9-0.3-1.5-0.6-1.8-0.8c-0.3-0.2-0.5-0.4-0.7-0.6c-0.1-0.2-0.2-0.4-0.2-0.7
			c0-0.4,0.2-0.7,0.6-1c0.4-0.2,0.9-0.4,1.7-0.4c0.8,0,1.8,0.2,2.8,0.6l0.6-1.3c-1.1-0.5-2.2-0.7-3.3-0.7c-1.2,0-2.2,0.2-2.8,0.7
			c-0.7,0.5-1,1.2-1,2c0,0.5,0.1,0.9,0.3,1.2c0.2,0.3,0.5,0.6,0.9,0.9c0.4,0.3,1.1,0.6,2.1,0.9c1,0.4,1.7,0.7,2.1,1
			c0.4,0.3,0.5,0.6,0.5,1c0,0.5-0.2,0.9-0.7,1.2c-0.4,0.3-1.1,0.4-1.9,0.4c-0.5,0-1.1-0.1-1.7-0.2c-0.6-0.1-1.1-0.3-1.6-0.6v1.5
			c0.8,0.4,1.9,0.7,3.2,0.7c1.3,0,2.3-0.3,3-0.8c0.7-0.5,1.1-1.3,1.1-2.3c0-0.7-0.2-1.3-0.7-1.7
			C536.2,793.5,535.4,793.1,534.1,792.6z"/>
		<path class="st7" d="M528.4,814.5l0,0.7l0.1,0.8h-0.1c-0.8-1-1.8-1.5-3.3-1.5c-1.4,0-2.4,0.5-3.2,1.4c-0.8,0.9-1.1,2.3-1.1,4
			c0,1.7,0.4,3,1.1,4c0.8,0.9,1.8,1.4,3.2,1.4c1.5,0,2.5-0.5,3.3-1.6h0.1l0.2,1.4h1.3v-14.8h-1.6V814.5z M528.4,820.2
			c0,1.3-0.2,2.3-0.7,2.8c-0.5,0.6-1.3,0.9-2.3,0.9c-0.9,0-1.7-0.3-2.2-1c-0.5-0.7-0.7-1.7-0.7-3c0-1.3,0.2-2.3,0.7-3.1
			c0.5-0.7,1.2-1.1,2.1-1.1c1.1,0,1.9,0.3,2.4,0.9c0.5,0.6,0.7,1.7,0.7,3.2V820.2z"/>
		<rect x="935.3" y="788.1" class="st7" width="1.6" height="10.4"/>
		<rect x="555.3" y="810.3" class="st7" width="1.6" height="14.8"/>
		<rect x="550.3" y="810.3" class="st7" width="1.6" height="14.8"/>
		<path class="st7" d="M546.9,793.6c0,1.4-0.3,2.3-0.8,2.9c-0.5,0.6-1.3,0.9-2.4,0.9c-0.8,0-1.4-0.2-1.8-0.6
			c-0.4-0.4-0.6-1.1-0.6-1.9v-6.8h-1.6v6.8c0,1.3,0.3,2.3,0.9,2.9c0.6,0.6,1.6,0.9,2.9,0.9c0.7,0,1.4-0.1,2-0.4
			c0.6-0.3,1-0.7,1.3-1.2h0.1l0.2,1.4h1.3v-10.4h-1.6V793.6z"/>
		<path class="st7" d="M514.4,814.5c-1.4,0-2.5,0.5-3.3,1.5c-0.8,1-1.2,2.3-1.2,4c0,1.7,0.4,3,1.3,3.9c0.9,0.9,2.1,1.4,3.6,1.4
			c0.7,0,1.3,0,1.8-0.2c0.5-0.1,1-0.3,1.6-0.5v-1.4c-1.1,0.5-2.2,0.7-3.3,0.7c-1.1,0-1.9-0.3-2.5-1c-0.6-0.6-0.9-1.6-0.9-2.8h7.2v-1
			c0-1.4-0.4-2.5-1.1-3.4C516.8,814.9,515.7,814.5,514.4,814.5z M511.5,818.9c0.1-1,0.4-1.7,0.9-2.3c0.5-0.5,1.2-0.8,2-0.8
			c0.8,0,1.5,0.3,1.9,0.8c0.4,0.5,0.7,1.3,0.7,2.3H511.5z"/>
		<path class="st7" d="M785.1,798.7c0.7,0,1.3-0.1,1.8-0.2c0.5-0.1,1-0.3,1.6-0.5v-1.4c-1.1,0.5-2.2,0.7-3.3,0.7
			c-1.1,0-1.9-0.3-2.5-1c-0.6-0.6-0.9-1.6-0.9-2.8h7.2v-1c0-1.4-0.4-2.5-1.1-3.4c-0.8-0.9-1.8-1.3-3.1-1.3c-1.4,0-2.5,0.5-3.3,1.5
			c-0.8,1-1.2,2.3-1.2,4c0,1.7,0.4,3,1.3,3.9C782.4,798.3,783.6,798.7,785.1,798.7z M782.7,790c0.5-0.5,1.2-0.8,2-0.8
			c0.8,0,1.5,0.3,1.9,0.8c0.4,0.5,0.7,1.3,0.7,2.3h-5.5C781.9,791.3,782.2,790.6,782.7,790z"/>
		<rect x="732.2" y="810.3" class="st7" width="1.6" height="14.8"/>
		<path class="st7" d="M657.2,798.7c0.8,0,1.4-0.1,1.9-0.4c0.5-0.2,1-0.7,1.6-1.3h0.1l0.3,1.5h1.2v-7.1c0-1.2-0.3-2.1-0.9-2.7
			c-0.6-0.6-1.5-0.8-2.8-0.8c-0.6,0-1.2,0.1-1.8,0.2c-0.6,0.2-1.2,0.4-1.7,0.7l0.5,1.2c1.1-0.5,2.1-0.8,3-0.8c0.8,0,1.3,0.2,1.7,0.6
			c0.3,0.4,0.5,1,0.5,1.8v0.6l-1.8,0.1c-3.4,0.1-5.1,1.2-5.1,3.3c0,1,0.3,1.7,0.9,2.3C655.3,798.5,656.2,798.7,657.2,798.7z
			 M656.4,794.1c0.6-0.3,1.5-0.5,2.7-0.6l1.6-0.1v0.9c0,1-0.3,1.7-0.8,2.3c-0.6,0.5-1.3,0.8-2.3,0.8c-0.6,0-1.1-0.2-1.5-0.4
			c-0.3-0.3-0.5-0.7-0.5-1.3C655.5,794.9,655.8,794.4,656.4,794.1z"/>
		<path class="st7" d="M734,793.1c0-1.4,0.3-2.3,0.8-2.9c0.5-0.6,1.3-0.9,2.4-0.9c0.8,0,1.4,0.2,1.8,0.6c0.4,0.4,0.6,1.1,0.6,1.9
			v6.8h1.6v-6.8c0-1.3-0.3-2.3-1-2.9c-0.6-0.6-1.6-0.9-2.8-0.9c-0.7,0-1.4,0.1-2,0.4c-0.6,0.3-1,0.7-1.4,1.2h-0.1l-0.3-1.4h-1.3
			v10.4h1.6V793.1z"/>
		<path class="st7" d="M588.7,798.1c0.7,0.4,1.6,0.7,2.5,0.7c1.5,0,2.7-0.5,3.6-1.4c0.9-1,1.3-2.3,1.3-4c0-1.7-0.4-3-1.3-3.9
			c-0.9-1-2-1.5-3.5-1.5c-1.5,0-2.7,0.5-3.5,1.4c-0.9,0.9-1.3,2.3-1.3,4c0,1.1,0.2,2.1,0.6,2.9C587.4,797,587.9,797.6,588.7,798.1z
			 M588.8,790.3c0.5-0.7,1.3-1,2.3-1c1,0,1.8,0.3,2.4,1c0.5,0.7,0.8,1.7,0.8,3c0,1.3-0.3,2.4-0.8,3.1c-0.5,0.7-1.3,1-2.4,1
			c-1,0-1.8-0.3-2.4-1c-0.5-0.7-0.8-1.7-0.8-3C588,792,588.3,790.9,588.8,790.3z"/>
		<path class="st7" d="M744.9,792.8c0.4,0.3,1.1,0.6,2.1,0.9c1,0.4,1.7,0.7,2.1,1c0.4,0.3,0.5,0.6,0.5,1c0,0.5-0.2,0.9-0.7,1.2
			c-0.4,0.3-1.1,0.4-1.9,0.4c-0.5,0-1.1-0.1-1.7-0.2c-0.6-0.1-1.1-0.3-1.6-0.6v1.5c0.8,0.4,1.9,0.7,3.2,0.7c1.3,0,2.3-0.3,3-0.8
			c0.7-0.5,1.1-1.3,1.1-2.3c0-0.7-0.2-1.3-0.7-1.7c-0.4-0.5-1.3-0.9-2.5-1.4c-0.9-0.3-1.5-0.6-1.8-0.8c-0.3-0.2-0.5-0.4-0.7-0.6
			c-0.1-0.2-0.2-0.4-0.2-0.7c0-0.4,0.2-0.7,0.6-1c0.4-0.2,0.9-0.4,1.7-0.4c0.8,0,1.8,0.2,2.8,0.6l0.6-1.3c-1.1-0.5-2.2-0.7-3.3-0.7
			c-1.2,0-2.2,0.2-2.8,0.7c-0.7,0.5-1,1.2-1,2c0,0.5,0.1,0.9,0.3,1.2C744.2,792.2,744.5,792.5,744.9,792.8z"/>
		<path class="st7" d="M593.4,815.9c0.3,0,0.7,0,1.1,0.1c0.4,0.1,0.8,0.2,1.1,0.3l0.5-1.3c-0.3-0.1-0.7-0.3-1.2-0.4
			c-0.5-0.1-1-0.2-1.5-0.2c-1.6,0-2.8,0.5-3.6,1.4c-0.8,0.9-1.3,2.3-1.3,4c0,1.7,0.4,3,1.2,3.9c0.8,0.9,2,1.4,3.5,1.4
			c1.1,0,1.9-0.2,2.6-0.5v-1.4c-0.9,0.4-1.8,0.6-2.7,0.6c-1,0-1.8-0.3-2.3-1c-0.5-0.7-0.8-1.7-0.8-2.9
			C590.2,817.2,591.3,815.9,593.4,815.9z"/>
		<rect x="598.7" y="783.7" class="st7" width="1.6" height="14.8"/>
		<path class="st7" d="M715.5,798.7c1.1,0,1.9-0.2,2.6-0.5v-1.4c-0.9,0.4-1.8,0.6-2.7,0.6c-1,0-1.8-0.3-2.3-1
			c-0.5-0.7-0.8-1.7-0.8-3c0-2.7,1.1-4.1,3.2-4.1c0.3,0,0.7,0,1.1,0.1c0.4,0.1,0.8,0.2,1.1,0.3l0.5-1.3c-0.3-0.2-0.7-0.3-1.2-0.4
			c-0.5-0.1-1-0.2-1.5-0.2c-1.6,0-2.8,0.5-3.6,1.4c-0.8,1-1.3,2.3-1.3,4c0,1.7,0.4,3,1.2,3.9C712.8,798.3,714,798.7,715.5,798.7z"/>
		<path class="st7" d="M690.4,823.1c-0.2,0.2-0.3,0.5-0.3,1c0,0.5,0.1,0.8,0.3,1c0.2,0.2,0.5,0.3,0.8,0.3c0.4,0,0.6-0.1,0.9-0.3
			c0.2-0.2,0.3-0.5,0.3-1c0-0.4-0.1-0.7-0.3-1c-0.2-0.2-0.5-0.3-0.9-0.3C690.9,822.8,690.6,822.9,690.4,823.1z"/>
		<path class="st7" d="M702.5,798.7c0.3-0.8,0.5-1.6,0.7-2.2l-0.1-0.2h-1.7c-0.1,0.6-0.2,1.4-0.4,2.3c-0.2,1-0.4,1.8-0.6,2.4h1.2
			C701.9,800.3,702.2,799.5,702.5,798.7z"/>
		<path class="st7" d="M688.1,798.7c0.7,0,1.3-0.1,1.8-0.2c0.5-0.1,1-0.3,1.6-0.5v-1.4c-1.1,0.5-2.2,0.7-3.3,0.7
			c-1.1,0-1.9-0.3-2.5-1c-0.6-0.6-0.9-1.6-0.9-2.8h7.2v-1c0-1.4-0.4-2.5-1.1-3.4c-0.8-0.9-1.8-1.3-3.1-1.3c-1.4,0-2.5,0.5-3.3,1.5
			c-0.8,1-1.2,2.3-1.2,4c0,1.7,0.4,3,1.3,3.9C685.3,798.3,686.5,798.7,688.1,798.7z M685.6,790c0.5-0.5,1.2-0.8,2-0.8
			c0.8,0,1.5,0.3,1.9,0.8c0.4,0.5,0.7,1.3,0.7,2.3h-5.5C684.8,791.3,685.1,790.6,685.6,790z"/>
		<path class="st7" d="M683.6,822.1c0,2.1,1,3.2,3,3.2c0.3,0,0.6,0,0.9-0.1c0.3-0.1,0.6-0.1,0.8-0.2v-1.2c-0.2,0-0.4,0.1-0.6,0.1
			c-0.3,0-0.5,0.1-0.8,0.1c-0.5,0-0.9-0.2-1.2-0.5c-0.3-0.3-0.4-0.8-0.4-1.4v-6.1h3v-1.2h-3v-2.4h-0.9l-0.7,2.2l-1.5,0.7v0.8h1.5
			V822.1z"/>
		<path class="st7" d="M715.2,814.7v6.8c0,1.3,0.3,2.3,0.9,2.9c0.6,0.6,1.6,0.9,2.9,0.9c0.7,0,1.4-0.1,2-0.4c0.6-0.3,1-0.7,1.3-1.2
			h0.1l0.2,1.4h1.3v-10.4h-1.6v5.5c0,1.4-0.3,2.3-0.8,2.9c-0.5,0.6-1.3,0.9-2.4,0.9c-0.8,0-1.4-0.2-1.8-0.6
			c-0.4-0.4-0.6-1.1-0.6-1.9v-6.8H715.2z"/>
		<path class="st7" d="M667.1,793.1c0-1.4,0.2-2.3,0.7-2.9c0.5-0.6,1.2-0.9,2.2-0.9c0.8,0,1.3,0.2,1.7,0.6c0.4,0.4,0.5,1,0.5,1.9
			v6.8h1.6v-5.8c0-1.2,0.2-2,0.7-2.6c0.5-0.6,1.2-0.9,2.2-0.9c0.7,0,1.3,0.2,1.7,0.6c0.4,0.4,0.5,1,0.5,1.9v6.8h1.6v-6.8
			c0-1.3-0.3-2.3-0.9-2.9c-0.6-0.6-1.5-0.9-2.7-0.9c-0.8,0-1.4,0.2-2,0.5c-0.6,0.3-1,0.8-1.4,1.3h-0.1c-0.5-1.2-1.6-1.8-3.2-1.8
			c-0.7,0-1.3,0.1-1.8,0.4c-0.5,0.3-1,0.7-1.3,1.2H667l-0.3-1.4h-1.3v10.4h1.6V793.1z"/>
		<path class="st7" d="M440.6,822.6L440.6,822.6l-4.5-11.5h-2.4v13.9h1.5v-8.9c0-1.3,0-2.5-0.1-3.5h0.1l4.7,12.3h1.3l4.8-12.3h0.1
			c-0.1,1.2-0.1,2.3-0.1,3.4v9h1.6v-13.9h-2.4L440.6,822.6z"/>
		<path class="st7" d="M802.6,815.9c-0.8,0.9-1.1,2.3-1.1,4c0,1.7,0.4,3,1.1,4c0.8,0.9,1.8,1.4,3.2,1.4c1.5,0,2.5-0.5,3.3-1.6h0.1
			l0.2,1.4h1.3v-14.8h-1.6v4.3l0,0.7l0.1,0.8h-0.1c-0.8-1-1.8-1.5-3.3-1.5C804.5,814.5,803.4,814.9,802.6,815.9z M808.4,816.7
			c0.5,0.6,0.7,1.7,0.7,3.2v0.3c0,1.3-0.2,2.3-0.7,2.8c-0.5,0.6-1.3,0.9-2.3,0.9c-0.9,0-1.7-0.3-2.2-1c-0.5-0.7-0.7-1.7-0.7-3
			c0-1.3,0.2-2.3,0.7-3.1c0.5-0.7,1.2-1.1,2.1-1.1C807.1,815.8,807.9,816.1,808.4,816.7z"/>
		<path class="st7" d="M468.9,820.1c0,1.4-0.3,2.3-0.8,2.9c-0.5,0.6-1.3,0.9-2.4,0.9c-0.8,0-1.4-0.2-1.8-0.6
			c-0.4-0.4-0.6-1.1-0.6-1.9v-6.8h-1.6v6.8c0,1.3,0.3,2.3,0.9,2.9c0.6,0.6,1.6,0.9,2.9,0.9c0.7,0,1.4-0.1,2-0.4
			c0.6-0.3,1-0.7,1.3-1.2h0.1l0.2,1.4h1.3v-10.4h-1.6V820.1z"/>
		<path class="st7" d="M455,814.5c-0.6,0-1.2,0.1-1.8,0.2c-0.6,0.2-1.2,0.4-1.7,0.7l0.5,1.2c1.1-0.5,2.1-0.8,2.9-0.8
			c0.8,0,1.3,0.2,1.7,0.6c0.3,0.4,0.5,1,0.5,1.8v0.6l-1.8,0.1c-3.4,0.1-5.1,1.2-5.1,3.3c0,1,0.3,1.7,0.9,2.3
			c0.6,0.5,1.4,0.8,2.4,0.8c0.8,0,1.4-0.1,1.9-0.3c0.5-0.2,1-0.7,1.6-1.3h0.1l0.3,1.5h1.2V818c0-1.2-0.3-2.1-0.9-2.7
			C457.1,814.8,456.2,814.5,455,814.5z M457.1,820.9c0,1-0.3,1.7-0.8,2.3c-0.6,0.5-1.3,0.8-2.3,0.8c-0.6,0-1.1-0.1-1.4-0.4
			c-0.3-0.3-0.5-0.7-0.5-1.3c0-0.7,0.3-1.3,0.8-1.6c0.6-0.3,1.5-0.5,2.7-0.6l1.6-0.1V820.9z"/>
		<path class="st7" d="M464.3,798.7c1.5,0,2.7-0.5,3.6-1.4c0.9-1,1.3-2.3,1.3-4c0-1.7-0.4-3-1.3-3.9c-0.9-1-2-1.5-3.5-1.5
			c-1.5,0-2.7,0.5-3.5,1.4c-0.9,0.9-1.3,2.3-1.3,4c0,1.1,0.2,2.1,0.6,2.9c0.4,0.8,1,1.4,1.7,1.9
			C462.6,798.5,463.4,798.7,464.3,798.7z M462,790.3c0.5-0.7,1.3-1,2.3-1c1,0,1.8,0.3,2.4,1c0.5,0.7,0.8,1.7,0.8,3
			c0,1.3-0.3,2.4-0.8,3.1c-0.5,0.7-1.3,1-2.4,1c-1,0-1.8-0.3-2.4-1c-0.5-0.7-0.8-1.7-0.8-3C461.2,792,461.5,790.9,462,790.3z"/>
		<rect x="481.8" y="814.7" class="st7" width="1.6" height="10.4"/>
		<path class="st7" d="M476.6,789.3c0.3,0,0.7,0,1.1,0.1l0.2-1.5c-0.4-0.1-0.8-0.1-1.2-0.1c-0.7,0-1.3,0.2-1.8,0.5
			c-0.5,0.4-1,0.9-1.4,1.6h-0.1l-0.2-1.9H472v10.4h1.6v-5.6c0-1,0.3-1.9,0.9-2.6C475,789.7,475.8,789.3,476.6,789.3z"/>
		<path class="st7" d="M476.8,815c-0.5,0.4-1,0.9-1.4,1.6h-0.1l-0.2-1.9h-1.3v10.4h1.6v-5.6c0-1,0.3-1.9,0.9-2.6
			c0.6-0.7,1.3-1,2.2-1c0.3,0,0.7,0,1.1,0.1l0.2-1.5c-0.4-0.1-0.8-0.1-1.2-0.1C478,814.5,477.4,814.6,476.8,815z"/>
		<rect x="513.7" y="788.1" class="st7" width="1.6" height="10.4"/>
		<path class="st7" d="M802.3,798.7c0.7,0,1.4-0.1,2-0.4c0.6-0.3,1-0.7,1.3-1.2h0.1l0.2,1.4h1.3v-10.4h-1.6v5.5
			c0,1.4-0.3,2.3-0.8,2.9c-0.5,0.6-1.3,0.9-2.4,0.9c-0.8,0-1.4-0.2-1.8-0.6c-0.4-0.4-0.6-1.1-0.6-1.9v-6.8h-1.6v6.8
			c0,1.3,0.3,2.3,0.9,2.9C800,798.4,801,798.7,802.3,798.7z"/>
		<path class="st7" d="M578.8,798.7c1.5,0,2.5-0.5,3.3-1.6h0.1l0.2,1.4h1.3v-14.8H582v4.3l0,0.7l0.1,0.8H582c-0.8-1-1.8-1.5-3.3-1.5
			c-1.4,0-2.4,0.5-3.2,1.4c-0.8,1-1.1,2.3-1.1,4c0,1.7,0.4,3,1.1,4C576.3,798.3,577.4,798.7,578.8,798.7z M576.8,790.3
			c0.5-0.7,1.2-1.1,2.1-1.1c1.1,0,1.9,0.3,2.4,0.9c0.5,0.6,0.7,1.7,0.7,3.2v0.3c0,1.3-0.2,2.3-0.7,2.8c-0.5,0.6-1.3,0.9-2.4,0.9
			c-0.9,0-1.7-0.3-2.2-1c-0.5-0.7-0.7-1.7-0.7-3C576.1,792,576.3,791,576.8,790.3z"/>
		<path class="st7" d="M514.5,786.3c0.3,0,0.5-0.1,0.7-0.3c0.2-0.2,0.3-0.4,0.3-0.8c0-0.4-0.1-0.6-0.3-0.8c-0.2-0.2-0.4-0.3-0.7-0.3
			c-0.3,0-0.5,0.1-0.7,0.3c-0.2,0.2-0.3,0.4-0.3,0.8c0,0.4,0.1,0.6,0.3,0.8C514,786.2,514.2,786.3,514.5,786.3z"/>
		<path class="st7" d="M791.8,795.5c0,2.1,1,3.2,3,3.2c0.3,0,0.6,0,0.9-0.1c0.3-0.1,0.6-0.1,0.8-0.2v-1.2c-0.2,0-0.4,0.1-0.6,0.1
			c-0.3,0-0.5,0.1-0.8,0.1c-0.5,0-0.9-0.2-1.2-0.5c-0.3-0.3-0.4-0.8-0.4-1.4v-6.1h3v-1.2h-3v-2.4h-0.9l-0.7,2.2l-1.5,0.7v0.8h1.5
			V795.5z"/>
		<path class="st7" d="M482.6,810.8c-0.3,0-0.5,0.1-0.7,0.3c-0.2,0.2-0.3,0.4-0.3,0.8c0,0.4,0.1,0.6,0.3,0.8
			c0.2,0.2,0.4,0.3,0.7,0.3c0.3,0,0.5-0.1,0.7-0.3c0.2-0.2,0.3-0.4,0.3-0.8c0-0.4-0.1-0.6-0.3-0.8
			C483.1,810.9,482.9,810.8,482.6,810.8z"/>
		<polygon class="st7" points="458.1,797.1 451.9,797.1 451.9,784.6 450.3,784.6 450.3,798.5 458.1,798.5 		"/>
		<path class="st7" d="M955.5,810.8c-0.3,0-0.5,0.1-0.7,0.3c-0.2,0.2-0.3,0.4-0.3,0.8c0,0.4,0.1,0.6,0.3,0.8
			c0.2,0.2,0.4,0.3,0.7,0.3c0.3,0,0.5-0.1,0.7-0.3c0.2-0.2,0.3-0.4,0.3-0.8c0-0.4-0.1-0.6-0.3-0.8
			C955.9,810.9,955.7,810.8,955.5,810.8z"/>
		<path class="st7" d="M814.8,812.9c0.3,0,0.5-0.1,0.7-0.3c0.2-0.2,0.3-0.4,0.3-0.8c0-0.4-0.1-0.6-0.3-0.8c-0.2-0.2-0.4-0.3-0.7-0.3
			c-0.3,0-0.5,0.1-0.7,0.3c-0.2,0.2-0.3,0.4-0.3,0.8c0,0.4,0.1,0.6,0.3,0.8C814.3,812.8,814.6,812.9,814.8,812.9z"/>
		<path class="st7" d="M815.5,849.3c-0.4,0-0.6,0.1-0.8,0.3c-0.2,0.2-0.3,0.5-0.3,1c0,0.5,0.1,0.8,0.3,1c0.2,0.2,0.5,0.3,0.8,0.3
			c0.4,0,0.6-0.1,0.9-0.3c0.2-0.2,0.3-0.5,0.3-1c0-0.4-0.1-0.7-0.3-1C816.2,849.4,815.9,849.3,815.5,849.3z"/>
		<path class="st7" d="M823.2,814.5c-1.5,0-2.7,0.5-3.5,1.4c-0.9,0.9-1.3,2.3-1.3,4c0,1.1,0.2,2.1,0.6,2.9c0.4,0.8,1,1.4,1.7,1.9
			c0.7,0.4,1.6,0.7,2.5,0.7c1.5,0,2.7-0.5,3.6-1.4c0.9-1,1.3-2.3,1.3-4c0-1.7-0.4-3-1.3-3.9C825.8,814.9,824.7,814.5,823.2,814.5z
			 M825.5,822.9c-0.5,0.7-1.3,1-2.4,1c-1,0-1.8-0.4-2.4-1c-0.5-0.7-0.8-1.7-0.8-3.1c0-1.3,0.3-2.4,0.8-3c0.5-0.7,1.3-1,2.3-1
			c1,0,1.8,0.3,2.4,1c0.5,0.7,0.8,1.7,0.8,3C826.3,821.2,826.1,822.2,825.5,822.9z"/>
		<path class="st7" d="M867.4,814.5c-0.8,0-1.4,0.2-2,0.5c-0.6,0.3-1,0.7-1.4,1.3h-0.1c-0.5-1.2-1.6-1.8-3.2-1.8
			c-0.7,0-1.3,0.1-1.8,0.4c-0.5,0.3-1,0.7-1.3,1.2h-0.1l-0.3-1.4H856v10.4h1.6v-5.5c0-1.4,0.2-2.3,0.7-2.9c0.5-0.6,1.2-0.9,2.2-0.9
			c0.8,0,1.3,0.2,1.7,0.6c0.4,0.4,0.5,1,0.5,1.9v6.8h1.6v-5.8c0-1.2,0.2-2,0.7-2.6c0.5-0.6,1.2-0.8,2.2-0.8c0.7,0,1.3,0.2,1.7,0.6
			c0.4,0.4,0.5,1,0.5,1.9v6.8h1.6v-6.8c0-1.3-0.3-2.3-0.9-2.9C869.5,814.8,868.6,814.5,867.4,814.5z"/>
		<path class="st7" d="M827.5,787.9c-0.6,0-1.2,0.1-1.8,0.2c-0.6,0.2-1.2,0.4-1.7,0.7l0.5,1.2c1.1-0.5,2.1-0.8,3-0.8
			c0.8,0,1.3,0.2,1.7,0.6c0.3,0.4,0.5,1,0.5,1.8v0.6l-1.8,0.1c-3.4,0.1-5.1,1.2-5.1,3.3c0,1,0.3,1.7,0.9,2.3
			c0.6,0.5,1.4,0.8,2.4,0.8c0.8,0,1.4-0.1,1.9-0.4c0.5-0.2,1-0.7,1.6-1.3h0.1l0.3,1.5h1.2v-7.1c0-1.2-0.3-2.1-0.9-2.7
			C829.6,788.2,828.7,787.9,827.5,787.9z M829.6,794.3c0,1-0.3,1.7-0.8,2.3c-0.6,0.5-1.3,0.8-2.3,0.8c-0.6,0-1.1-0.2-1.4-0.4
			c-0.3-0.3-0.5-0.7-0.5-1.3c0-0.7,0.3-1.3,0.8-1.6c0.6-0.3,1.5-0.5,2.7-0.6l1.6-0.1V794.3z"/>
		<path class="st7" d="M839.4,819.2c-0.9-0.3-1.5-0.6-1.8-0.8c-0.3-0.2-0.5-0.4-0.7-0.6c-0.1-0.2-0.2-0.4-0.2-0.7
			c0-0.4,0.2-0.7,0.6-1c0.4-0.2,0.9-0.3,1.7-0.3c0.8,0,1.8,0.2,2.8,0.6l0.6-1.3c-1.1-0.5-2.2-0.7-3.3-0.7c-1.2,0-2.2,0.2-2.8,0.7
			s-1,1.2-1,2c0,0.5,0.1,0.9,0.3,1.2c0.2,0.3,0.5,0.6,0.9,0.9c0.4,0.3,1.1,0.6,2.1,1c1,0.4,1.7,0.7,2.1,1c0.4,0.3,0.5,0.6,0.5,1
			c0,0.5-0.2,0.9-0.7,1.2c-0.4,0.3-1.1,0.4-1.9,0.4c-0.5,0-1.1-0.1-1.7-0.2c-0.6-0.1-1.1-0.3-1.6-0.6v1.5c0.8,0.4,1.9,0.7,3.2,0.7
			c1.3,0,2.3-0.3,3-0.8c0.7-0.5,1.1-1.3,1.1-2.3c0-0.7-0.2-1.3-0.7-1.7C841.5,820.1,840.6,819.6,839.4,819.2z"/>
		<path class="st7" d="M849.1,814.5c-1.4,0-2.5,0.5-3.3,1.5c-0.8,1-1.2,2.3-1.2,4c0,1.7,0.4,3,1.3,3.9c0.9,0.9,2.1,1.4,3.6,1.4
			c0.7,0,1.3,0,1.8-0.2c0.5-0.1,1-0.3,1.6-0.5v-1.4c-1.1,0.5-2.2,0.7-3.3,0.7c-1.1,0-1.9-0.3-2.5-1c-0.6-0.6-0.9-1.6-0.9-2.8h7.2v-1
			c0-1.4-0.4-2.5-1.1-3.4C851.4,814.9,850.4,814.5,849.1,814.5z M846.2,818.9c0.1-1,0.4-1.7,0.9-2.3c0.5-0.5,1.2-0.8,2-0.8
			c0.8,0,1.5,0.3,1.9,0.8c0.4,0.5,0.7,1.3,0.7,2.3H846.2z"/>
		<path class="st7" d="M602.7,814.5c-1.5,0-2.7,0.5-3.5,1.4c-0.9,0.9-1.3,2.3-1.3,4c0,1.1,0.2,2.1,0.6,2.9c0.4,0.8,1,1.4,1.7,1.9
			c0.7,0.4,1.6,0.7,2.5,0.7c1.5,0,2.7-0.5,3.6-1.4c0.9-1,1.3-2.3,1.3-4c0-1.7-0.4-3-1.3-3.9C605.3,814.9,604.2,814.5,602.7,814.5z
			 M605,822.9c-0.5,0.7-1.3,1-2.4,1c-1,0-1.8-0.4-2.4-1c-0.5-0.7-0.8-1.7-0.8-3.1c0-1.3,0.3-2.4,0.8-3c0.5-0.7,1.3-1,2.3-1
			c1,0,1.8,0.3,2.4,1c0.5,0.7,0.8,1.7,0.8,3C605.8,821.2,605.6,822.2,605,822.9z"/>
		<path class="st7" d="M841.4,788l0,0.7l0.1,0.8h-0.1c-0.8-1-1.8-1.5-3.3-1.5c-1.4,0-2.4,0.5-3.2,1.4c-0.8,1-1.1,2.3-1.1,4
			c0,1.7,0.4,3,1.1,4c0.8,0.9,1.8,1.4,3.2,1.4c1.4,0,2.5-0.5,3.3-1.6h0.1l0.2,1.4h1.3v-14.8h-1.6V788z M841.4,793.7
			c0,1.3-0.2,2.3-0.7,2.8c-0.5,0.6-1.3,0.9-2.3,0.9c-0.9,0-1.7-0.3-2.1-1c-0.5-0.7-0.7-1.7-0.7-3c0-1.3,0.2-2.3,0.7-3.1
			c0.5-0.7,1.2-1.1,2.1-1.1c1.1,0,1.9,0.3,2.4,0.9c0.5,0.6,0.7,1.7,0.7,3.2V793.7z"/>
		<rect x="814" y="814.7" class="st7" width="1.6" height="10.4"/>
		<path class="st7" d="M774,795.5c0,2.1,1,3.2,3,3.2c0.3,0,0.6,0,0.9-0.1c0.3-0.1,0.6-0.1,0.8-0.2v-1.2c-0.2,0-0.4,0.1-0.6,0.1
			c-0.3,0-0.5,0.1-0.8,0.1c-0.5,0-0.9-0.2-1.2-0.5c-0.3-0.3-0.4-0.8-0.4-1.4v-6.1h3v-1.2h-3v-2.4h-0.9l-0.7,2.2l-1.5,0.7v0.8h1.5
			V795.5z"/>
		<path class="st7" d="M777,825.3c1.5,0,2.5-0.5,3.3-1.6h0.1l0.2,1.4h1.3v-14.8h-1.6v4.3l0,0.7l0.1,0.8h-0.1c-0.8-1-1.8-1.5-3.3-1.5
			c-1.4,0-2.4,0.5-3.2,1.4c-0.8,0.9-1.1,2.3-1.1,4c0,1.7,0.4,3,1.1,4C774.6,824.8,775.7,825.3,777,825.3z M775.1,816.9
			c0.5-0.7,1.2-1.1,2.1-1.1c1.1,0,1.9,0.3,2.4,0.9c0.5,0.6,0.7,1.7,0.7,3.2v0.3c0,1.3-0.2,2.3-0.7,2.8c-0.5,0.6-1.3,0.9-2.4,0.9
			c-0.9,0-1.7-0.3-2.1-1c-0.5-0.7-0.7-1.7-0.7-3C774.3,818.6,774.6,817.6,775.1,816.9z"/>
		<path class="st7" d="M768.8,789.3c0.3,0,0.7,0,1.1,0.1c0.4,0.1,0.8,0.2,1.1,0.3l0.5-1.3c-0.3-0.2-0.7-0.3-1.2-0.4
			c-0.5-0.1-1-0.2-1.5-0.2c-1.6,0-2.8,0.5-3.6,1.4c-0.8,1-1.3,2.3-1.3,4c0,1.7,0.4,3,1.2,3.9c0.8,0.9,2,1.4,3.5,1.4
			c1.1,0,1.9-0.2,2.6-0.5v-1.4c-0.9,0.4-1.8,0.6-2.7,0.6c-1,0-1.8-0.3-2.3-1c-0.5-0.7-0.8-1.7-0.8-3
			C765.6,790.7,766.7,789.3,768.8,789.3z"/>
		<path class="st7" d="M816.3,789.5l0.2-1.5c-0.4-0.1-0.8-0.1-1.2-0.1c-0.7,0-1.3,0.2-1.8,0.5c-0.5,0.4-1,0.9-1.4,1.6H812l-0.2-1.9
			h-1.3v10.4h1.6v-5.6c0-1,0.3-1.9,0.9-2.6c0.6-0.7,1.3-1,2.2-1C815.5,789.3,815.9,789.4,816.3,789.5z"/>
		<path class="st7" d="M780.7,846.7c0,1.4-0.3,2.3-0.8,2.9c-0.5,0.6-1.3,0.9-2.4,0.9c-0.8,0-1.4-0.2-1.8-0.6
			c-0.4-0.4-0.6-1.1-0.6-1.9v-6.8h-1.6v6.8c0,1.3,0.3,2.3,0.9,2.9c0.6,0.6,1.6,0.9,2.9,0.9c0.7,0,1.4-0.1,2-0.4
			c0.6-0.3,1-0.7,1.3-1.2h0.1l0.2,1.4h1.3v-10.4h-1.6V846.7z"/>
		<path class="st7" d="M807.8,841c-0.8,0-1.4,0.2-2,0.5c-0.6,0.3-1,0.7-1.4,1.3h-0.1c-0.5-1.2-1.6-1.8-3.2-1.8
			c-0.7,0-1.3,0.1-1.8,0.4c-0.5,0.3-1,0.7-1.3,1.2H798l-0.3-1.4h-1.3v10.4h1.6v-5.5c0-1.4,0.2-2.3,0.7-2.9c0.5-0.6,1.2-0.9,2.2-0.9
			c0.8,0,1.3,0.2,1.7,0.6c0.4,0.4,0.5,1,0.5,1.9v6.8h1.6v-5.8c0-1.2,0.2-2,0.7-2.6c0.5-0.6,1.2-0.9,2.2-0.9c0.7,0,1.3,0.2,1.7,0.6
			c0.4,0.4,0.5,1,0.5,1.9v6.8h1.6v-6.8c0-1.3-0.3-2.3-0.9-2.9C809.9,841.3,809,841,807.8,841z"/>
		<path class="st7" d="M789.5,841c-0.6,0-1.2,0.1-1.8,0.2c-0.6,0.2-1.2,0.4-1.7,0.7l0.5,1.2c1.1-0.5,2.1-0.8,3-0.8
			c0.8,0,1.3,0.2,1.7,0.6c0.4,0.4,0.5,1,0.5,1.8v0.6l-1.8,0.1c-3.4,0.1-5.1,1.2-5.1,3.3c0,1,0.3,1.7,0.9,2.3
			c0.6,0.5,1.4,0.8,2.4,0.8c0.8,0,1.4-0.1,1.9-0.3c0.5-0.2,1-0.7,1.6-1.3h0.1l0.3,1.5h1.2v-7.1c0-1.2-0.3-2.1-0.9-2.7
			C791.7,841.3,790.8,841,789.5,841z M791.6,847.5c0,1-0.3,1.7-0.8,2.3c-0.6,0.5-1.3,0.8-2.3,0.8c-0.6,0-1.1-0.1-1.4-0.4
			c-0.3-0.3-0.5-0.7-0.5-1.3c0-0.7,0.3-1.3,0.8-1.6c0.6-0.4,1.5-0.5,2.7-0.6l1.6-0.1V847.5z"/>
		<path class="st7" d="M799.3,819.9c0-1.7-0.4-3-1.3-3.9c-0.9-1-2-1.5-3.5-1.5c-1.5,0-2.7,0.5-3.5,1.4c-0.9,0.9-1.3,2.3-1.3,4
			c0,1.1,0.2,2.1,0.6,2.9c0.4,0.8,1,1.4,1.7,1.9c0.7,0.4,1.6,0.7,2.5,0.7c1.5,0,2.7-0.5,3.6-1.4
			C798.9,822.9,799.3,821.6,799.3,819.9z M796.9,822.9c-0.5,0.7-1.3,1-2.4,1c-1,0-1.8-0.4-2.4-1c-0.5-0.7-0.8-1.7-0.8-3.1
			c0-1.3,0.3-2.4,0.8-3c0.5-0.7,1.3-1,2.3-1c1,0,1.8,0.3,2.4,1c0.5,0.7,0.8,1.7,0.8,3C797.7,821.2,797.4,822.2,796.9,822.9z"/>
		<path class="st7" d="M926.2,814.5c-0.8,0-1.4,0.2-2,0.5c-0.6,0.3-1,0.7-1.4,1.3h-0.1c-0.5-1.2-1.6-1.8-3.2-1.8
			c-0.7,0-1.3,0.1-1.8,0.4c-0.5,0.3-1,0.7-1.3,1.2h-0.1l-0.3-1.4h-1.3v10.4h1.6v-5.5c0-1.4,0.2-2.3,0.7-2.9c0.5-0.6,1.2-0.9,2.2-0.9
			c0.8,0,1.3,0.2,1.7,0.6c0.4,0.4,0.5,1,0.5,1.9v6.8h1.6v-5.8c0-1.2,0.2-2,0.7-2.6c0.5-0.6,1.2-0.8,2.2-0.8c0.7,0,1.3,0.2,1.7,0.6
			c0.4,0.4,0.5,1,0.5,1.9v6.8h1.6v-6.8c0-1.3-0.3-2.3-0.9-2.9C928.3,814.8,927.4,814.5,926.2,814.5z"/>
		<rect x="944.8" y="810.3" class="st7" width="1.6" height="14.8"/>
		<path class="st7" d="M945,797.2c-0.2,0-0.4,0.1-0.6,0.1c-0.3,0-0.5,0.1-0.8,0.1c-0.5,0-0.9-0.2-1.2-0.5c-0.3-0.3-0.4-0.8-0.4-1.4
			v-6.1h3v-1.2h-3v-2.4H941l-0.7,2.2l-1.5,0.7v0.8h1.5v6.2c0,2.1,1,3.2,3,3.2c0.3,0,0.6,0,0.9-0.1c0.3-0.1,0.6-0.1,0.8-0.2V797.2z"
			/>
		<path class="st7" d="M948,796.2c-0.4,0-0.6,0.1-0.8,0.3c-0.2,0.2-0.3,0.5-0.3,1c0,0.5,0.1,0.8,0.3,1c0.2,0.2,0.5,0.3,0.8,0.3
			c0.4,0,0.6-0.1,0.9-0.3c0.2-0.2,0.3-0.5,0.3-1c0-0.4-0.1-0.7-0.3-1C948.6,796.3,948.3,796.2,948,796.2z"/>
		<path class="st7" d="M874.9,795.7c0-0.7-0.2-1.3-0.7-1.7c-0.4-0.5-1.3-0.9-2.5-1.4c-0.9-0.3-1.5-0.6-1.8-0.8
			c-0.3-0.2-0.5-0.4-0.7-0.6c-0.1-0.2-0.2-0.4-0.2-0.7c0-0.4,0.2-0.7,0.6-1c0.4-0.2,0.9-0.4,1.7-0.4c0.8,0,1.8,0.2,2.8,0.6l0.6-1.3
			c-1.1-0.5-2.2-0.7-3.3-0.7c-1.2,0-2.2,0.2-2.8,0.7c-0.7,0.5-1,1.2-1,2c0,0.5,0.1,0.9,0.3,1.2c0.2,0.3,0.5,0.6,0.9,0.9
			c0.4,0.3,1.1,0.6,2.1,0.9c1,0.4,1.7,0.7,2.1,1c0.4,0.3,0.5,0.6,0.5,1c0,0.5-0.2,0.9-0.7,1.2c-0.4,0.3-1.1,0.4-1.9,0.4
			c-0.5,0-1.1-0.1-1.7-0.2c-0.6-0.1-1.1-0.3-1.6-0.6v1.5c0.8,0.4,1.9,0.7,3.2,0.7c1.3,0,2.3-0.3,3.1-0.8
			C874.5,797.4,874.9,796.7,874.9,795.7z"/>
		<path class="st7" d="M963.2,819.2c-0.9-0.3-1.5-0.6-1.8-0.8c-0.3-0.2-0.5-0.4-0.7-0.6c-0.1-0.2-0.2-0.4-0.2-0.7
			c0-0.4,0.2-0.7,0.6-1c0.4-0.2,0.9-0.3,1.7-0.3c0.8,0,1.8,0.2,2.8,0.6l0.6-1.3c-1.1-0.5-2.2-0.7-3.3-0.7c-1.2,0-2.2,0.2-2.8,0.7
			c-0.7,0.5-1,1.2-1,2c0,0.5,0.1,0.9,0.3,1.2c0.2,0.3,0.5,0.6,0.9,0.9c0.4,0.3,1.1,0.6,2.1,1c1,0.4,1.7,0.7,2.1,1
			c0.4,0.3,0.5,0.6,0.5,1c0,0.5-0.2,0.9-0.7,1.2c-0.4,0.3-1.1,0.4-1.9,0.4c-0.5,0-1.1-0.1-1.7-0.2c-0.6-0.1-1.1-0.3-1.6-0.6v1.5
			c0.8,0.4,1.9,0.7,3.2,0.7c1.3,0,2.3-0.3,3-0.8c0.7-0.5,1.1-1.3,1.1-2.3c0-0.7-0.2-1.3-0.7-1.7
			C965.2,820.1,964.4,819.6,963.2,819.2z"/>
		<rect x="930.3" y="783.7" class="st7" width="1.6" height="14.8"/>
		<rect x="949.7" y="810.3" class="st7" width="1.6" height="14.8"/>
		<rect x="954.7" y="814.7" class="st7" width="1.6" height="10.4"/>
		<path class="st7" d="M937.2,814.5c-1.5,0-2.7,0.5-3.5,1.4c-0.9,0.9-1.3,2.3-1.3,4c0,1.1,0.2,2.1,0.6,2.9c0.4,0.8,1,1.4,1.7,1.9
			c0.7,0.4,1.6,0.7,2.5,0.7c1.5,0,2.7-0.5,3.6-1.4c0.9-1,1.3-2.3,1.3-4c0-1.7-0.4-3-1.3-3.9C939.9,814.9,938.7,814.5,937.2,814.5z
			 M939.6,822.9c-0.5,0.7-1.3,1-2.4,1c-1,0-1.8-0.4-2.4-1c-0.5-0.7-0.8-1.7-0.8-3.1c0-1.3,0.3-2.4,0.8-3c0.5-0.7,1.3-1,2.3-1
			c1,0,1.8,0.3,2.4,1c0.5,0.7,0.8,1.7,0.8,3C940.4,821.2,940.1,822.2,939.6,822.9z"/>
		<path class="st7" d="M898.8,791.8v6.8h1.6v-6.8c0-1.3-0.3-2.3-1-2.9c-0.6-0.6-1.6-0.9-2.8-0.9c-0.7,0-1.4,0.1-1.9,0.4
			c-0.6,0.3-1,0.7-1.4,1.2h-0.1l-0.3-1.4h-1.3v10.4h1.6v-5.5c0-1.4,0.3-2.3,0.8-2.9c0.5-0.6,1.3-0.9,2.4-0.9c0.8,0,1.4,0.2,1.8,0.6
			C898.6,790.3,898.8,790.9,898.8,791.8z"/>
		<path class="st7" d="M881.7,789.3c0.3,0,0.7,0,1.1,0.1c0.4,0.1,0.8,0.2,1.1,0.3l0.5-1.3c-0.3-0.2-0.7-0.3-1.2-0.4
			c-0.5-0.1-1-0.2-1.5-0.2c-1.6,0-2.8,0.5-3.6,1.4c-0.8,1-1.3,2.3-1.3,4c0,1.7,0.4,3,1.2,3.9c0.8,0.9,2,1.4,3.5,1.4
			c1.1,0,1.9-0.2,2.6-0.5v-1.4c-0.9,0.4-1.8,0.6-2.7,0.6c-1,0-1.8-0.3-2.3-1c-0.5-0.7-0.8-1.7-0.8-3
			C878.5,790.7,879.6,789.3,881.7,789.3z"/>
		<path class="st7" d="M890.1,814.5c-1.4,0-2.5,0.5-3.3,1.5c-0.8,1-1.2,2.3-1.2,4c0,1.7,0.4,3,1.3,3.9c0.9,0.9,2.1,1.4,3.6,1.4
			c0.7,0,1.3,0,1.8-0.2c0.5-0.1,1-0.3,1.6-0.5v-1.4c-1.1,0.5-2.2,0.7-3.3,0.7c-1.1,0-1.9-0.3-2.5-1c-0.6-0.6-0.9-1.6-0.9-2.8h7.2v-1
			c0-1.4-0.4-2.5-1.1-3.4C892.5,814.9,891.4,814.5,890.1,814.5z M887.2,818.9c0.1-1,0.4-1.7,0.9-2.3c0.5-0.5,1.2-0.8,2-0.8
			c0.8,0,1.5,0.3,1.9,0.8c0.4,0.5,0.7,1.3,0.7,2.3H887.2z"/>
		<path class="st7" d="M879,814.5c-0.7,0-1.3,0.1-1.9,0.4c-0.5,0.3-1,0.7-1.4,1.2h-0.1l-0.2-1.4h-1.3v15.1h1.6v-4.3
			c0-0.5,0-1.1-0.1-1.7h0.1c0.4,0.5,0.9,0.9,1.4,1.2c0.6,0.2,1.2,0.4,1.9,0.4c1.4,0,2.4-0.5,3.2-1.4c0.8-0.9,1.1-2.3,1.1-4
			c0-1.7-0.4-3-1.1-4C881.5,814.9,880.4,814.5,879,814.5z M881,822.9c-0.5,0.7-1.2,1.1-2.1,1.1c-1.1,0-1.9-0.3-2.4-1
			c-0.5-0.6-0.7-1.7-0.7-3.1v-0.3c0-1.3,0.3-2.2,0.7-2.8c0.5-0.6,1.2-0.9,2.3-0.9c0.9,0,1.6,0.3,2.2,1c0.5,0.7,0.8,1.7,0.8,3
			C881.7,821.1,881.5,822.1,881,822.9z"/>
		<path class="st7" d="M900,815c-0.5,0.4-1,0.9-1.4,1.6h-0.1l-0.2-1.9h-1.3v10.4h1.6v-5.6c0-1,0.3-1.9,0.9-2.6c0.6-0.7,1.3-1,2.2-1
			c0.3,0,0.7,0,1.1,0.1l0.2-1.5c-0.4-0.1-0.8-0.1-1.2-0.1C901.2,814.5,900.6,814.6,900,815z"/>
		<path class="st7" d="M907.1,787.9c-1.3,0-2.2,0.3-2.9,0.9c-0.7,0.6-1,1.5-1,2.6c0,0.7,0.2,1.3,0.5,1.8c0.3,0.5,0.8,0.9,1.3,1.1
			c-0.4,0.3-0.8,0.5-1,0.8c-0.2,0.3-0.3,0.6-0.3,1c0,0.3,0.1,0.6,0.3,0.9c0.2,0.3,0.4,0.4,0.7,0.6c-0.7,0.2-1.3,0.5-1.7,0.9
			c-0.4,0.5-0.6,1-0.6,1.6c0,0.9,0.4,1.6,1.1,2.1c0.7,0.5,1.8,0.8,3.2,0.8c1.8,0,3.1-0.3,4.1-0.9c0.9-0.6,1.4-1.5,1.4-2.6
			c0-0.9-0.3-1.6-0.9-2.1c-0.6-0.5-1.5-0.7-2.6-0.7h-1.8c-0.6,0-1-0.1-1.2-0.2c-0.2-0.1-0.4-0.3-0.4-0.6c0-0.5,0.3-1,1-1.3
			c0.3,0,0.6,0.1,0.9,0.1c1.2,0,2.2-0.3,2.9-0.9c0.7-0.6,1-1.4,1-2.4c0-0.5-0.1-0.9-0.2-1.2c-0.1-0.4-0.3-0.6-0.5-0.9l1.9-0.2v-1
			h-3.6C908.1,788,907.7,787.9,907.1,787.9z M906.1,798.3h1.9c1,0,1.6,0.1,2,0.3c0.4,0.2,0.5,0.6,0.5,1.2c0,0.7-0.3,1.2-1,1.6
			c-0.6,0.4-1.6,0.6-2.9,0.6c-0.9,0-1.6-0.1-2-0.4c-0.5-0.3-0.7-0.7-0.7-1.3c0-0.6,0.2-1.1,0.6-1.5
			C904.9,798.5,905.4,798.3,906.1,798.3z M909.4,791.4c0,1.5-0.8,2.3-2.3,2.3c-0.7,0-1.3-0.2-1.7-0.6c-0.4-0.4-0.6-0.9-0.6-1.7
			c0-0.8,0.2-1.4,0.6-1.8c0.4-0.4,1-0.6,1.7-0.6C908.6,789.1,909.4,789.8,909.4,791.4z"/>
		<path class="st7" d="M905,822.8c-0.1,0.6-0.2,1.4-0.4,2.3c-0.2,1-0.4,1.8-0.6,2.4h1.2c0.3-0.7,0.7-1.5,1-2.3
			c0.3-0.8,0.5-1.6,0.7-2.2l-0.1-0.2H905z"/>
		<path class="st7" d="M766.3,814.5c-1.4,0-2.5,0.5-3.3,1.5c-0.8,1-1.2,2.3-1.2,4c0,1.7,0.4,3,1.3,3.9c0.9,0.9,2.1,1.4,3.6,1.4
			c0.7,0,1.3,0,1.8-0.2c0.5-0.1,1-0.3,1.6-0.5v-1.4c-1.1,0.5-2.2,0.7-3.3,0.7c-1.1,0-1.9-0.3-2.5-1c-0.6-0.6-0.9-1.6-0.9-2.8h7.2v-1
			c0-1.4-0.4-2.5-1.1-3.4C768.7,814.9,767.7,814.5,766.3,814.5z M763.4,818.9c0.1-1,0.4-1.7,0.9-2.3c0.5-0.5,1.2-0.8,2-0.8
			c0.8,0,1.5,0.3,1.9,0.8c0.4,0.5,0.7,1.3,0.7,2.3H763.4z"/>
		<path class="st7" d="M859.3,797.3c0.8-0.9,1.1-2.3,1.1-4c0-1.7-0.4-3-1.1-4c-0.8-0.9-1.8-1.4-3.2-1.4c-0.7,0-1.3,0.1-1.9,0.4
			c-0.5,0.3-1,0.7-1.4,1.2h-0.1l-0.2-1.4h-1.3v15.1h1.6v-4.3c0-0.5,0-1.1-0.1-1.7h0.1c0.4,0.5,0.9,0.9,1.4,1.2
			c0.6,0.3,1.2,0.4,1.9,0.4C857.5,798.7,858.6,798.2,859.3,797.3z M853.6,796.5c-0.5-0.6-0.7-1.7-0.7-3.1V793c0-1.3,0.3-2.2,0.7-2.8
			c0.5-0.6,1.2-0.9,2.3-0.9c0.9,0,1.6,0.3,2.2,1c0.5,0.7,0.8,1.7,0.8,3c0,1.3-0.3,2.3-0.8,3c-0.5,0.7-1.2,1.1-2.1,1.1
			C854.9,797.4,854.1,797.1,853.6,796.5z"/>
		<path class="st7" d="M634.6,825.3c0.7,0,1.3,0,1.8-0.2c0.5-0.1,1-0.3,1.6-0.5v-1.4c-1.1,0.5-2.2,0.7-3.3,0.7c-1.1,0-1.9-0.3-2.5-1
			c-0.6-0.6-0.9-1.6-0.9-2.8h7.2v-1c0-1.4-0.4-2.5-1.1-3.4c-0.8-0.9-1.8-1.3-3.1-1.3c-1.4,0-2.5,0.5-3.3,1.5c-0.8,1-1.2,2.3-1.2,4
			c0,1.7,0.4,3,1.3,3.9C631.8,824.8,633,825.3,634.6,825.3z M632.1,816.6c0.5-0.5,1.2-0.8,2-0.8c0.8,0,1.5,0.3,1.9,0.8
			c0.4,0.5,0.7,1.3,0.7,2.3h-5.5C631.3,817.9,631.6,817.1,632.1,816.6z"/>
		<path class="st7" d="M634.9,841c-0.7,0-1.4,0.1-2,0.4c-0.6,0.3-1,0.7-1.4,1.2h-0.1l-0.3-1.4H630v10.4h1.6v-5.5
			c0-1.4,0.3-2.3,0.8-2.9c0.5-0.6,1.3-0.9,2.4-0.9c0.8,0,1.4,0.2,1.8,0.6c0.4,0.4,0.6,1.1,0.6,1.9v6.7h1.6v-6.8c0-1.3-0.3-2.3-1-2.9
			C637.1,841.3,636.2,841,634.9,841z"/>
		<path class="st7" d="M623.1,814.5c-0.7,0-1.3,0.1-1.9,0.4c-0.5,0.3-1,0.7-1.4,1.2h-0.1l-0.2-1.4h-1.3v15.1h1.6v-4.3
			c0-0.5,0-1.1-0.1-1.7h0.1c0.4,0.5,0.9,0.9,1.4,1.2c0.6,0.2,1.2,0.4,1.9,0.4c1.4,0,2.4-0.5,3.2-1.4c0.8-0.9,1.1-2.3,1.1-4
			c0-1.7-0.4-3-1.1-4C625.5,814.9,624.4,814.5,623.1,814.5z M625,822.9c-0.5,0.7-1.2,1.1-2.1,1.1c-1.1,0-1.9-0.3-2.4-1
			c-0.5-0.6-0.7-1.7-0.7-3.1v-0.3c0-1.3,0.3-2.2,0.7-2.8c0.5-0.6,1.2-0.9,2.3-0.9c0.9,0,1.6,0.3,2.2,1c0.5,0.7,0.8,1.7,0.8,3
			C625.8,821.1,625.5,822.1,625,822.9z"/>
		<path class="st7" d="M633,797c-0.4,0.3-1.1,0.4-1.9,0.4c-0.5,0-1.1-0.1-1.7-0.2c-0.6-0.1-1.1-0.3-1.6-0.6v1.5
			c0.8,0.4,1.9,0.7,3.2,0.7c1.3,0,2.3-0.3,3-0.8c0.7-0.5,1.1-1.3,1.1-2.3c0-0.7-0.2-1.3-0.7-1.7c-0.4-0.5-1.3-0.9-2.5-1.4
			c-0.9-0.3-1.5-0.6-1.8-0.8c-0.3-0.2-0.5-0.4-0.7-0.6c-0.1-0.2-0.2-0.4-0.2-0.7c0-0.4,0.2-0.7,0.6-1c0.4-0.2,0.9-0.4,1.7-0.4
			c0.8,0,1.8,0.2,2.8,0.6l0.6-1.3c-1.1-0.5-2.2-0.7-3.3-0.7c-1.2,0-2.2,0.2-2.8,0.7c-0.7,0.5-1,1.2-1,2c0,0.5,0.1,0.9,0.3,1.2
			c0.2,0.3,0.5,0.6,0.9,0.9c0.4,0.3,1.1,0.6,2.1,0.9c1,0.4,1.7,0.7,2.1,1c0.4,0.3,0.5,0.6,0.5,1C633.7,796.4,633.5,796.8,633,797z"
			/>
		<path class="st7" d="M655.8,841c-1.4,0-2.5,0.5-3.3,1.5c-0.8,1-1.2,2.3-1.2,4c0,1.7,0.4,3,1.3,3.9c0.9,0.9,2.1,1.4,3.6,1.4
			c0.7,0,1.3,0,1.8-0.2c0.5-0.1,1-0.3,1.6-0.5v-1.4c-1.1,0.5-2.2,0.7-3.3,0.7c-1.1,0-1.9-0.3-2.5-1c-0.6-0.6-0.9-1.6-0.9-2.8h7.2v-1
			c0-1.4-0.4-2.5-1.1-3.4C658.1,841.4,657.1,841,655.8,841z M652.9,845.4c0.1-1,0.4-1.7,0.9-2.3c0.5-0.5,1.2-0.8,2-0.8
			c0.8,0,1.5,0.3,1.9,0.8c0.4,0.5,0.7,1.3,0.7,2.3H652.9z"/>
		<path class="st7" d="M638.6,784.2c-0.3,0-0.5,0.1-0.7,0.3c-0.2,0.2-0.3,0.4-0.3,0.8c0,0.4,0.1,0.6,0.3,0.8
			c0.2,0.2,0.4,0.3,0.7,0.3c0.3,0,0.5-0.1,0.7-0.3c0.2-0.2,0.3-0.4,0.3-0.8c0-0.4-0.1-0.6-0.3-0.8
			C639.1,784.3,638.8,784.2,638.6,784.2z"/>
		<path class="st7" d="M644.1,815c-0.5,0.4-1,0.9-1.4,1.6h-0.1l-0.2-1.9h-1.3v10.4h1.6v-5.6c0-1,0.3-1.9,0.9-2.6
			c0.6-0.7,1.3-1,2.2-1c0.3,0,0.7,0,1.1,0.1l0.2-1.5c-0.4-0.1-0.8-0.1-1.2-0.1C645.2,814.5,644.6,814.6,644.1,815z"/>
		<path class="st7" d="M646.1,797.4c-0.5,0-0.9-0.2-1.2-0.5c-0.3-0.3-0.4-0.8-0.4-1.4v-6.1h3v-1.2h-3v-2.4h-0.9l-0.7,2.2l-1.5,0.7
			v0.8h1.5v6.2c0,2.1,1,3.2,3,3.2c0.3,0,0.6,0,0.9-0.1c0.3-0.1,0.6-0.1,0.8-0.2v-1.2c-0.2,0-0.4,0.1-0.6,0.1
			C646.6,797.4,646.4,797.4,646.1,797.4z"/>
		<path class="st7" d="M641.9,849.4c-0.1,0.6-0.2,1.4-0.4,2.3c-0.2,1-0.4,1.8-0.6,2.4h1.2c0.3-0.7,0.7-1.5,1-2.3
			c0.3-0.8,0.5-1.6,0.7-2.2l-0.1-0.2H641.9z"/>
		<rect x="637.8" y="788.1" class="st7" width="1.6" height="10.4"/>
		<rect x="608.2" y="841.2" class="st7" width="1.6" height="10.4"/>
		<path class="st7" d="M609,837.3c-0.3,0-0.5,0.1-0.7,0.3c-0.2,0.2-0.3,0.4-0.3,0.8c0,0.4,0.1,0.6,0.3,0.8c0.2,0.2,0.4,0.3,0.7,0.3
			c0.3,0,0.5-0.1,0.7-0.3c0.2-0.2,0.3-0.4,0.3-0.8c0-0.4-0.1-0.6-0.3-0.8C609.4,837.4,609.2,837.3,609,837.3z"/>
		<path class="st7" d="M612.7,793.3c0-1.7-0.4-3-1.3-3.9c-0.9-1-2-1.5-3.5-1.5c-1.5,0-2.7,0.5-3.5,1.4c-0.9,0.9-1.3,2.3-1.3,4
			c0,1.1,0.2,2.1,0.6,2.9c0.4,0.8,1,1.4,1.7,1.9c0.7,0.4,1.6,0.7,2.5,0.7c1.5,0,2.7-0.5,3.6-1.4C612.3,796.3,612.7,795,612.7,793.3z
			 M610.2,796.4c-0.5,0.7-1.3,1-2.4,1c-1,0-1.8-0.3-2.4-1c-0.5-0.7-0.8-1.7-0.8-3c0-1.3,0.3-2.4,0.8-3c0.5-0.7,1.3-1,2.3-1
			c1,0,1.8,0.3,2.4,1c0.5,0.7,0.8,1.7,0.8,3C611,794.6,610.8,795.7,610.2,796.4z"/>
		<path class="st7" d="M611.8,819.5c0-1,0.3-1.9,0.9-2.6c0.6-0.7,1.3-1,2.2-1c0.3,0,0.7,0,1.1,0.1l0.2-1.5c-0.4-0.1-0.8-0.1-1.2-0.1
			c-0.7,0-1.3,0.2-1.8,0.6c-0.5,0.4-1,0.9-1.4,1.6h-0.1l-0.2-1.9h-1.3v10.4h1.6V819.5z"/>
		<path class="st7" d="M625.9,837.3c-0.3,0-0.5,0.1-0.7,0.3c-0.2,0.2-0.3,0.4-0.3,0.8c0,0.4,0.1,0.6,0.3,0.8
			c0.2,0.2,0.4,0.3,0.7,0.3c0.3,0,0.5-0.1,0.7-0.3c0.2-0.2,0.3-0.4,0.3-0.8c0-0.4-0.1-0.6-0.3-0.8
			C626.3,837.4,626.1,837.3,625.9,837.3z"/>
		<rect x="625.1" y="841.2" class="st7" width="1.6" height="10.4"/>
		<path class="st7" d="M768.8,842.6L768.8,842.6c-0.9-1.1-2-1.6-3.4-1.6c-1.4,0-2.4,0.5-3.2,1.4c-0.8,1-1.1,2.3-1.1,4
			c0,1.7,0.4,3,1.1,4c0.8,0.9,1.8,1.4,3.2,1.4c1.5,0,2.6-0.5,3.3-1.6h0.1c-0.1,0.4-0.1,1-0.1,1.6v4.5h1.6v-15.1h-1.2L768.8,842.6z
			 M768.7,846.8c0,1.3-0.3,2.3-0.8,2.9c-0.5,0.6-1.3,0.8-2.3,0.8c-1,0-1.7-0.3-2.2-1c-0.5-0.7-0.7-1.7-0.7-3c0-1.3,0.2-2.3,0.7-3.1
			c0.5-0.7,1.2-1.1,2.1-1.1c1.1,0,1.9,0.3,2.4,1c0.5,0.6,0.7,1.7,0.7,3.2V846.8z"/>
		<path class="st7" d="M616.5,850.5c-0.5,0-0.9-0.2-1.2-0.5c-0.3-0.3-0.4-0.8-0.4-1.5v-6.1h3v-1.2h-3v-2.4h-0.9l-0.7,2.2l-1.5,0.7
			v0.8h1.5v6.2c0,2.1,1,3.2,3,3.2c0.3,0,0.6,0,0.9-0.1c0.3-0.1,0.6-0.1,0.8-0.2v-1.2c-0.2,0-0.4,0.1-0.6,0.1
			C617,850.5,616.8,850.5,616.5,850.5z"/>
		<path class="st7" d="M621.2,789.5l0.2-1.5c-0.4-0.1-0.8-0.1-1.2-0.1c-0.7,0-1.3,0.2-1.8,0.5c-0.5,0.4-1,0.9-1.4,1.6h-0.1l-0.2-1.9
			h-1.3v10.4h1.6v-5.6c0-1,0.3-1.9,0.9-2.6c0.6-0.7,1.3-1,2.2-1C620.4,789.3,620.8,789.4,621.2,789.5z"/>
		<path class="st7" d="M733.6,846.7c0,1.4-0.3,2.3-0.8,2.9c-0.5,0.6-1.3,0.9-2.4,0.9c-0.8,0-1.4-0.2-1.8-0.6
			c-0.4-0.4-0.6-1.1-0.6-1.9v-6.8h-1.6v6.8c0,1.3,0.3,2.3,0.9,2.9c0.6,0.6,1.6,0.9,2.9,0.9c0.7,0,1.4-0.1,2-0.4
			c0.6-0.3,1-0.7,1.4-1.2h0.1l0.2,1.4h1.3v-10.4h-1.6V846.7z"/>
		<rect x="727.3" y="810.3" class="st7" width="1.6" height="14.8"/>
		<path class="st7" d="M729.6,793.3c0-1.7-0.4-3-1.3-3.9c-0.9-1-2-1.5-3.5-1.5c-1.5,0-2.7,0.5-3.5,1.4c-0.9,0.9-1.3,2.3-1.3,4
			c0,1.1,0.2,2.1,0.6,2.9c0.4,0.8,0.9,1.4,1.7,1.9c0.7,0.4,1.6,0.7,2.5,0.7c1.5,0,2.7-0.5,3.6-1.4
			C729.2,796.3,729.6,795,729.6,793.3z M727.2,796.4c-0.5,0.7-1.3,1-2.4,1s-1.8-0.3-2.4-1c-0.5-0.7-0.8-1.7-0.8-3
			c0-1.3,0.3-2.4,0.8-3c0.5-0.7,1.3-1,2.3-1c1,0,1.8,0.3,2.4,1c0.5,0.7,0.8,1.7,0.8,3C728,794.6,727.7,795.7,727.2,796.4z"/>
		<path class="st7" d="M741.6,824.9c0.5-0.2,1-0.7,1.6-1.3h0.1l0.3,1.5h1.2V818c0-1.2-0.3-2.1-0.9-2.7c-0.6-0.6-1.5-0.8-2.8-0.8
			c-0.6,0-1.2,0.1-1.8,0.2c-0.6,0.2-1.2,0.4-1.7,0.7l0.5,1.2c1.1-0.5,2.1-0.8,3-0.8c0.8,0,1.3,0.2,1.7,0.6c0.4,0.4,0.5,1,0.5,1.8
			v0.6l-1.8,0.1c-3.4,0.1-5.1,1.2-5.1,3.3c0,1,0.3,1.7,0.9,2.3c0.6,0.5,1.4,0.8,2.4,0.8C740.4,825.3,741.1,825.2,741.6,824.9z
			 M738,822.2c0-0.7,0.3-1.3,0.8-1.6c0.6-0.3,1.5-0.5,2.7-0.6l1.6-0.1v0.9c0,1-0.3,1.7-0.8,2.3c-0.6,0.5-1.3,0.8-2.3,0.8
			c-0.6,0-1.1-0.1-1.4-0.4C738.2,823.2,738,822.8,738,822.2z"/>
		<path class="st7" d="M723,850.5c-0.5,0-0.9-0.2-1.2-0.5c-0.3-0.3-0.4-0.8-0.4-1.5v-6.1h3v-1.2h-3v-2.4h-0.9l-0.7,2.2l-1.5,0.7v0.8
			h1.5v6.2c0,2.1,1,3.2,3,3.2c0.3,0,0.6,0,0.9-0.1c0.3-0.1,0.6-0.1,0.8-0.2v-1.2c-0.2,0-0.4,0.1-0.6,0.1
			C723.6,850.5,723.3,850.5,723,850.5z"/>
		<path class="st7" d="M749.9,841c-0.8,0-1.4,0.2-2,0.5c-0.6,0.3-1,0.7-1.4,1.3h-0.1c-0.5-1.2-1.6-1.8-3.2-1.8
			c-0.7,0-1.3,0.1-1.8,0.4c-0.5,0.3-1,0.7-1.3,1.2H740l-0.3-1.4h-1.3v10.4h1.6v-5.5c0-1.4,0.2-2.3,0.7-2.9c0.5-0.6,1.2-0.9,2.2-0.9
			c0.8,0,1.3,0.2,1.7,0.6c0.3,0.4,0.5,1,0.5,1.9v6.8h1.6v-5.8c0-1.2,0.2-2,0.7-2.6c0.5-0.6,1.2-0.9,2.2-0.9c0.7,0,1.3,0.2,1.7,0.6
			c0.4,0.4,0.5,1,0.5,1.9v6.8h1.6v-6.8c0-1.3-0.3-2.3-0.9-2.9C751.9,841.3,751,841,749.9,841z"/>
		<path class="st7" d="M761.4,796.6c-1.1,0.5-2.2,0.7-3.3,0.7c-1.1,0-1.9-0.3-2.5-1c-0.6-0.6-0.9-1.6-0.9-2.8h7.2v-1
			c0-1.4-0.4-2.5-1.1-3.4c-0.8-0.9-1.8-1.3-3.1-1.3c-1.4,0-2.5,0.5-3.3,1.5c-0.8,1-1.2,2.3-1.2,4c0,1.7,0.4,3,1.3,3.9
			c0.9,0.9,2.1,1.4,3.7,1.4c0.7,0,1.3-0.1,1.8-0.2c0.5-0.1,1-0.3,1.6-0.5V796.6z M755.6,790c0.5-0.5,1.2-0.8,2-0.8
			c0.8,0,1.5,0.3,1.9,0.8c0.4,0.5,0.7,1.3,0.7,2.3h-5.5C754.8,791.3,755.1,790.6,755.6,790z"/>
		<path class="st7" d="M658.1,814.5c-1.4,0-2.5,0.5-3.3,1.5c-0.8,1-1.2,2.3-1.2,4c0,1.7,0.4,3,1.3,3.9c0.9,0.9,2.1,1.4,3.6,1.4
			c0.7,0,1.3,0,1.8-0.2c0.5-0.1,1-0.3,1.6-0.5v-1.4c-1.1,0.5-2.2,0.7-3.3,0.7c-1.1,0-1.9-0.3-2.5-1c-0.6-0.6-0.9-1.6-0.9-2.8h7.2v-1
			c0-1.4-0.4-2.5-1.1-3.4C660.5,814.9,659.4,814.5,658.1,814.5z M655.2,818.9c0.1-1,0.4-1.7,0.9-2.3c0.5-0.5,1.2-0.8,2-0.8
			c0.8,0,1.5,0.3,1.9,0.8c0.4,0.5,0.7,1.3,0.7,2.3H655.2z"/>
		<path class="st7" d="M756.6,819.2c-0.9-0.3-1.5-0.6-1.8-0.8c-0.3-0.2-0.5-0.4-0.7-0.6c-0.1-0.2-0.2-0.4-0.2-0.7
			c0-0.4,0.2-0.7,0.6-1c0.4-0.2,0.9-0.3,1.7-0.3c0.8,0,1.8,0.2,2.8,0.6l0.6-1.3c-1.1-0.5-2.2-0.7-3.3-0.7c-1.2,0-2.2,0.2-2.8,0.7
			s-1,1.2-1,2c0,0.5,0.1,0.9,0.3,1.2c0.2,0.3,0.5,0.6,0.9,0.9c0.4,0.3,1.1,0.6,2.1,1c1,0.4,1.7,0.7,2.1,1c0.4,0.3,0.5,0.6,0.5,1
			c0,0.5-0.2,0.9-0.7,1.2c-0.4,0.3-1.1,0.4-1.9,0.4c-0.5,0-1.1-0.1-1.7-0.2c-0.6-0.1-1.1-0.3-1.6-0.6v1.5c0.8,0.4,1.9,0.7,3.2,0.7
			c1.3,0,2.3-0.3,3-0.8c0.7-0.5,1.1-1.3,1.1-2.3c0-0.7-0.2-1.3-0.7-1.7C758.7,820.1,757.9,819.6,756.6,819.2z"/>
		<path class="st7" d="M671.7,841c-1.4,0-2.5,0.5-3.3,1.5c-0.8,1-1.2,2.3-1.2,4c0,1.7,0.4,3,1.3,3.9c0.9,0.9,2.1,1.4,3.6,1.4
			c0.7,0,1.3,0,1.8-0.2c0.5-0.1,1-0.3,1.6-0.5v-1.4c-1.1,0.5-2.2,0.7-3.3,0.7c-1.1,0-1.9-0.3-2.5-1c-0.6-0.6-0.9-1.6-0.9-2.8h7.2v-1
			c0-1.4-0.4-2.5-1.1-3.4C674,841.4,673,841,671.7,841z M668.8,845.4c0.1-1,0.4-1.7,0.9-2.3c0.5-0.5,1.2-0.8,2-0.8
			c0.8,0,1.5,0.3,1.9,0.8c0.4,0.5,0.7,1.3,0.7,2.3H668.8z"/>
		<path class="st7" d="M712.6,841c-0.7,0-1.4,0.1-2,0.4c-0.6,0.3-1,0.7-1.4,1.2h-0.1l-0.3-1.4h-1.3v10.4h1.6v-5.5
			c0-1.4,0.3-2.3,0.8-2.9c0.5-0.6,1.3-0.9,2.4-0.9c0.8,0,1.4,0.2,1.8,0.6c0.4,0.4,0.6,1.1,0.6,1.9v6.7h1.6v-6.8c0-1.3-0.3-2.3-1-2.9
			C714.8,841.3,713.9,841,712.6,841z"/>
		<rect x="662.7" y="836.8" class="st7" width="1.6" height="14.8"/>
		<path class="st7" d="M678.7,823.6l0.3,1.5h1.2V818c0-1.2-0.3-2.1-0.9-2.7c-0.6-0.6-1.5-0.8-2.8-0.8c-0.6,0-1.2,0.1-1.8,0.2
			c-0.6,0.2-1.2,0.4-1.7,0.7l0.5,1.2c1.1-0.5,2.1-0.8,3-0.8c0.8,0,1.3,0.2,1.7,0.6c0.4,0.4,0.5,1,0.5,1.8v0.6l-1.8,0.1
			c-3.4,0.1-5.1,1.2-5.1,3.3c0,1,0.3,1.7,0.9,2.3c0.6,0.5,1.4,0.8,2.4,0.8c0.8,0,1.4-0.1,1.9-0.3
			C677.6,824.7,678.1,824.3,678.7,823.6L678.7,823.6z M678.6,820.9c0,1-0.3,1.7-0.8,2.3c-0.6,0.5-1.3,0.8-2.3,0.8
			c-0.6,0-1.1-0.1-1.5-0.4c-0.3-0.3-0.5-0.7-0.5-1.3c0-0.7,0.3-1.3,0.8-1.6c0.6-0.3,1.5-0.5,2.7-0.6l1.6-0.1V820.9z"/>
		<path class="st7" d="M669.7,815.9c0.3,0,0.7,0,1.1,0.1l0.2-1.5c-0.4-0.1-0.8-0.1-1.2-0.1c-0.7,0-1.3,0.2-1.8,0.6
			c-0.5,0.4-1,0.9-1.4,1.6h-0.1l-0.2-1.9h-1.3v10.4h1.6v-5.6c0-1,0.3-1.9,0.9-2.6C668.1,816.2,668.9,815.9,669.7,815.9z"/>
		<path class="st7" d="M690,841c-0.8,0-1.4,0.2-2,0.5c-0.6,0.3-1,0.7-1.4,1.3h-0.1c-0.5-1.2-1.6-1.8-3.2-1.8c-0.7,0-1.3,0.1-1.8,0.4
			c-0.5,0.3-1,0.7-1.3,1.2h-0.1l-0.3-1.4h-1.3v10.4h1.6v-5.5c0-1.4,0.2-2.3,0.7-2.9c0.5-0.6,1.2-0.9,2.2-0.9c0.8,0,1.3,0.2,1.7,0.6
			c0.4,0.4,0.5,1,0.5,1.9v6.8h1.6v-5.8c0-1.2,0.2-2,0.7-2.6c0.5-0.6,1.2-0.9,2.2-0.9c0.7,0,1.3,0.2,1.7,0.6c0.4,0.4,0.5,1,0.5,1.9
			v6.8h1.6v-6.8c0-1.3-0.3-2.3-0.9-2.9C692,841.3,691.1,841,690,841z"/>
		<path class="st7" d="M700.7,841c-1.4,0-2.5,0.5-3.3,1.5c-0.8,1-1.2,2.3-1.2,4c0,1.7,0.4,3,1.3,3.9c0.9,0.9,2.1,1.4,3.7,1.4
			c0.7,0,1.3,0,1.8-0.2c0.5-0.1,1-0.3,1.6-0.5v-1.4c-1.1,0.5-2.2,0.7-3.3,0.7c-1.1,0-1.9-0.3-2.5-1c-0.6-0.6-0.9-1.6-0.9-2.8h7.2v-1
			c0-1.4-0.4-2.5-1.1-3.4C703.1,841.4,702.1,841,700.7,841z M697.8,845.4c0.1-1,0.4-1.7,0.9-2.3c0.5-0.5,1.2-0.8,2-0.8
			c0.8,0,1.5,0.3,1.9,0.8c0.4,0.5,0.7,1.3,0.7,2.3H697.8z"/>
		<path class="st7" d="M698.6,798.6c0.3-0.1,0.6-0.1,0.8-0.2v-1.2c-0.2,0-0.4,0.1-0.6,0.1c-0.3,0-0.5,0.1-0.8,0.1
			c-0.5,0-0.9-0.2-1.2-0.5c-0.3-0.3-0.4-0.8-0.4-1.4v-6.1h3v-1.2h-3v-2.4h-0.9l-0.7,2.2l-1.5,0.7v0.8h1.5v6.2c0,2.1,1,3.2,3,3.2
			C698,798.7,698.3,798.7,698.6,798.6z"/>
		<path class="st7" d="M542.6,718.4c-2.1-1.3-4.8-2.4-7.9-3.1c-3.1-0.7-6.9-1.1-11.2-1.1h-19.3v53.1h18.7c4.2,0,7.9-0.3,11-0.9
			c3.1-0.6,5.9-1.7,8.5-3.3c3.4-2.1,6.3-5.1,8.6-9c2.3-3.9,3.4-8.3,3.4-13.3c0-5.1-1-9.6-3.2-13.4
			C549.2,723.6,546.3,720.6,542.6,718.4z M538.4,749.5c-1.2,2.4-3,4.3-5.5,5.7c-1.4,0.8-2.9,1.3-4.4,1.6c-1.5,0.3-3.9,0.4-7.1,0.4
			h-3.4v-33.2h3.4c2.9,0,5.1,0.1,6.6,0.4c1.5,0.2,2.9,0.7,4.3,1.4c2.8,1.4,4.8,3.3,6,5.8c1.3,2.5,1.9,5.5,1.9,9
			C540.2,744.2,539.6,747.2,538.4,749.5z"/>
		<polygon class="st7" points="562.5,723.6 571.2,723.6 571.2,757.9 562.5,757.9 562.5,767.3 593.6,767.3 593.6,757.9 584.9,757.9 
			584.9,723.6 593.6,723.6 593.6,714.2 562.5,714.2 		"/>
		<polygon class="st7" points="454.3,767.3 492.7,767.3 492.7,757 468,757 468,743.9 491,743.9 491,733.6 468,733.6 468,724.5 
			492.7,724.5 492.7,714.2 454.3,714.2 		"/>
		<polygon class="st7" points="640.5,744.6 621.2,714.2 604.8,714.2 604.8,767.3 617.3,767.3 617.3,730.9 639.9,767.3 653.1,767.3 
			653.1,714.2 640.5,714.2 		"/>
		<path class="st7" d="M755.1,747.3c0,3.8-0.8,6.6-2.4,8.3c-1.6,1.7-4.1,2.6-7.5,2.6c-3.5,0-6-0.9-7.5-2.7c-1.5-1.8-2.3-4.6-2.3-8.2
			v-33.1h-13.7v33.9c0,6.5,2,11.6,6,15.1c4,3.5,9.9,5.2,17.6,5.2c7.8,0,13.6-1.8,17.6-5.2c4-3.5,6-8.5,6-15.1v-33.9h-13.7V747.3z"/>
		<path class="st7" d="M822.9,738.4c1.8-2.5,2.7-5.7,2.7-9.6c0-2.9-0.6-5.2-1.8-7.1c-1.2-1.9-2.8-3.4-4.8-4.6c-2-1.2-4.1-2-6.3-2.3
			c-2.3-0.4-4.9-0.5-8.1-0.5h-23v53.1h13.7v-19.5h6.2l14.5,19.5h16.8l-17.7-22.8C818.5,742.9,821.1,740.8,822.9,738.4z M810.7,734
			c-0.4,0.9-1.1,1.7-2.1,2.4c-1,0.8-2.2,1.2-3.7,1.4c-1.4,0.2-3.3,0.3-5.4,0.3h-4.2V724h4.9c1.6,0,3,0,4.3,0.1
			c1.2,0.1,2.3,0.3,3.2,0.7c1.3,0.5,2.2,1.3,2.8,2.2c0.5,0.9,0.8,2.1,0.8,3.4C811.4,731.9,811.1,733.1,810.7,734z"/>
		<polygon class="st7" points="932,733.6 911.9,733.6 911.9,714.2 898.1,714.2 898.1,767.3 911.9,767.3 911.9,743.9 932,743.9 
			932,767.3 945.7,767.3 945.7,714.2 932,714.2 		"/>
		<path class="st7" d="M700.9,738.2v-0.3c2.5-1.1,4.4-2.6,5.7-4.6c1.4-2,2-4.2,2-6.8c0-2.2-0.5-4.2-1.5-5.9c-1-1.7-2.5-3.1-4.5-4.1
			c-2-1-3.9-1.6-5.9-1.9c-2-0.3-5.1-0.4-9.4-0.4h-20.6v53.1h23.2c3.9,0,7-0.3,9.6-1c2.5-0.7,4.8-1.8,6.9-3.4c1.8-1.3,3.2-3,4.3-5
			c1-2,1.5-4.3,1.5-6.9c0-3.5-1-6.4-3-8.6C707.1,740.3,704.3,738.9,700.9,738.2z M680.4,723.9h1.3c2.7,0,4.7,0,6.2,0
			c1.5,0,2.7,0.2,3.7,0.6c1.1,0.4,1.9,1.1,2.3,2c0.4,0.9,0.7,1.8,0.7,2.6c0,1.1-0.2,2.2-0.6,3c-0.4,0.9-1.2,1.6-2.4,2.1
			c-0.9,0.4-2.1,0.6-3.6,0.7c-1.5,0.1-3.4,0.1-5.5,0.1h-2.1V723.9z M697.1,754.3c-0.5,1-1.5,1.8-2.9,2.4c-1.4,0.6-2.9,0.9-4.6,0.9
			c-1.7,0-4.4,0-8.2,0h-1v-13.3h3c2,0,4,0,5.8,0c1.9,0,3.3,0.2,4.4,0.5c1.5,0.4,2.7,1.1,3.3,2.1c0.6,0.9,1,2.2,1,3.9
			C697.9,752.1,697.6,753.3,697.1,754.3z"/>
		<path class="st7" d="M861.3,748H872v10.5c-0.5,0-1.1,0.1-1.7,0.1c-0.6,0-1.2,0-1.7,0c-6.1,0-10.7-1.6-13.8-4.7
			c-3.1-3.1-4.7-7.6-4.7-13.5c0-2.9,0.4-5.4,1.3-7.6c0.9-2.2,2.1-4,3.6-5.4c1.6-1.5,3.3-2.6,5.3-3.3c2-0.7,4.2-1.1,6.6-1.1
			c2.1,0,4,0.3,5.9,0.8c1.8,0.5,3.5,1.2,4.8,2c1.2,0.6,2.4,1.4,3.7,2.3c1.3,0.9,2.3,1.6,2.9,2.1h1.5v-12.5
			c-3.9-1.9-7.4-3.1-10.6-3.8c-3.2-0.6-6.5-1-10-1c-9.2,0-16.4,2.5-21.6,7.6c-5.2,5.1-7.8,11.7-7.8,20c0,8.7,2.6,15.5,7.7,20.4
			c5.1,4.9,12.2,7.4,21.3,7.4c3.9,0,7.8-0.5,11.7-1.4c3.9-0.9,7.1-1.8,9.5-2.8V738h-24.6V748z"/>
	</g>
	<path class="st4" d="M330.9,476.6c-2.3,6.7-20.4,4.3-27,4.3c-11.2,0-61.5-4.8-57.4,10.5c1.4,5.2,27.4,2.1,32.4,4.7l11.2,5.8
		c6.1,3.2,13.2,1.9,19.8,1.4c1.2-0.1,6-0.9,1.2-2.6c-3.3-1.2-6.9-4-11.7-6.3l21.2,0.1c13,0.1,16.5-3.3,16.5-15.3
		C337.2,472.6,333.1,470.4,330.9,476.6z"/>
	<path class="st6" d="M1180.6,596.8c-3.3-0.4-2.9,0.4-2.7-3.7c0-0.9-3.9-1-4.1-0.4c-0.6,1.4,2,3.7-1.6,3.8c-0.3,0-0.5-0.2-0.9-0.3
		c-1.7-0.7-6.1-2.3-7.2,0.9c-2.3,0.8,4.4,0.8,4.9,1.4c0.2,0.2,1.4,1.2,1.5,1.2c0.2,0.5,0.8,0.7,1.4,2.5c0.2,0.7-0.7,1.2-0.7,2.7
		c0.6,0,1-1.9,2.7-1.9c0.1,0,1.8-0.2,2-0.4c1.9-2.2,4.8-1.1,7.4-0.8c0.8,0.1,3.8,2.4,2.5-1.3
		C1185.1,598.6,1182.4,597.1,1180.6,596.8z"/>
	<path class="st6" d="M1201.9,586.2c-2.4-1-2.6,0.3-3.4,0.8c-3.2,2-1,0.3-3.3-1.1c-1.6-1-4.1-1.7-4.6-2c-0.9-0.6-3.2,3.9-2.6,5.7
		c0.2,0.3,0.8,0.5,1.1,0.5c3.6-0.1,0.7-0.7,2.1-2.5c0.5-0.6,2.8,2.1,3.2,2.7c1.1,1.9-0.6,2.4-0.2,3.1c0.7,1.1,0.8-1.1,1.7-1.1
		c1.5,0.1,1,1.3,1,2.3c0.2,0,4-2.7,1.8-3.7c3.1,0.6,3.1,0.1,5.2,2.6c0.9,1.1,0.7,2.2,1.8,1.6
		C1206.5,594.9,1205.9,587.9,1201.9,586.2z"/>
</g>
</svg>
